<svg width="96" height="34" viewBox="0 0 96 34" fill="none" xmlns="http://www.w3.org/2000/svg">
    <path fill-rule="evenodd" clip-rule="evenodd" d="M90.559 14.206c-.519 1.633-1.675 2.666-2.909 3.286a7.955 7.955 0 0 1-3.331.824l-.07.405c2.053.11 3.295.794 3.996 1.656.646.793.812 1.713.752 2.409h.39c.536-1.671 1.7-2.7 2.934-3.308a8.098 8.098 0 0 1 3.29-.8l.076-.376c-2.045-.143-3.279-.835-3.98-1.695a3.522 3.522 0 0 1-.786-2.401h-.362z" fill="#44403D"/>
    <path d="M12.191.228c0-.086-.063-.135-.124-.124-1.07.198-2.963.347-4.755.371v.396c.548.025 1.344.08 1.344.446v5.767c-.697-.223-1.493-.347-2.39-.347-3.659 0-6.024 2.401-6.024 6.287 0 2.846 1.295 5.643 4.058 5.643 2.265 0 3.859-1.88 3.859-1.88l-.125-.199s-.747.47-1.519.47c-1.742 0-2.489-2.45-2.489-5.964 0-2.847.871-4.01 2.016-4.01 1.195 0 2.614 1.22 2.614 2.772v7.747c.034.47.198.867.623.792 1.12-.198 2.813-.346 4.257-.371v-.396c-.523 0-1.345-.164-1.345-.421V.227zM22.202 16.514c-2.614 0-4.431-2.45-4.431-6.015 0-1.658.398-3.34 1.568-3.39 1.27-.025 2.415 1.88 2.514 3.935l-3.734.47.05.322 7.17-.57c-.025-3.118-2.69-4.529-5.179-4.529-3.634 0-6.024 2.896-6.024 6.238 0 3.39 2.465 5.692 5.402 5.692 2.041 0 4.108-1.138 5.477-2.87l-.174-.174s-1.096.89-2.64.89zM34.456 6.713c-1.693 0-2.813 1.782-3.236 4.158l.224.05c.249-1.263.822-1.907 1.22-2.08.722-.346 1.344.644.821 1.956.274.123.623.173.897.173 1.344 0 2.165-1.065 2.165-2.154s-.821-2.103-2.09-2.103zm-3.56.198-.124-.124c-1.07.198-2.962.346-4.755.371v.396c.548.025 1.344 0 1.344.446v9.752l-1.369.297v.346c1.917-.124 4.431-.148 6.323 0l-.024-.495c-.623 0-1.395-.309-1.395-.743V6.911zM49.74 10.994c0-3.02-.92-4.232-2.862-4.232-2.589 0-4.033 2.228-4.033 2.228l.175.222s.746-.717 1.692-.717c1.07 0 1.519.866 1.519 3.02v6.236l-1.37.297v.347c1.917-.124 4.432-.149 6.324 0l-.025-.495c-.672 0-1.42-.3-1.42-.792v-6.114zM58.43 17.9c-.622 0-1.394-.295-1.394-.743v-6.163c0-3.02-.996-4.232-2.838-4.232-2.54 0-4.406 2.228-4.406 2.228l.174.222s.821-.717 1.942-.717c1.195 0 1.593.792 1.593 3.02v6.236l-1.37.297v.347c1.918-.124 4.432-.149 6.324 0l-.025-.495zM42.372 6.91c0-.088-.038-.14-.124-.123-1.07.198-2.963.346-4.755.371v.396c.523.025 1.344.127 1.344.446v9.751l-1.369.297v.347c1.917-.124 4.431-.149 6.323 0l-.025-.495c-.647 0-1.394-.319-1.394-.743V6.91zM64.588 27.885l.056-.368c.112-.787.329-1.55.65-2.285.321-.735.74-1.39 1.255-1.962a5.83 5.83 0 0 1 1.84-1.37c.702-.335 1.483-.498 2.342-.491.852.007 1.577.186 2.175.535a3.984 3.984 0 0 1 1.435 1.382c.366.58.617 1.23.752 1.95.134.714.156 1.446.067 2.197l-.045.367a8.36 8.36 0 0 1-.661 2.274 7.313 7.313 0 0 1-1.267 1.962 5.781 5.781 0 0 1-1.828 1.36c-.703.327-1.483.487-2.343.48-.845-.008-1.57-.183-2.175-.525a4.115 4.115 0 0 1-1.435-1.382 5.634 5.634 0 0 1-.74-1.94 7.347 7.347 0 0 1-.078-2.184zm1.367-.368-.045.368a6.77 6.77 0 0 0-.01 1.694c.066.572.22 1.1.459 1.583.246.476.59.862 1.031 1.16.441.296.995.449 1.66.456.68.008 1.292-.13 1.838-.412a4.53 4.53 0 0 0 1.413-1.137 6.27 6.27 0 0 0 .975-1.605 8.017 8.017 0 0 0 .516-1.784l.045-.367c.074-.55.074-1.111 0-1.683a4.806 4.806 0 0 0-.46-1.595 2.98 2.98 0 0 0-1.02-1.17c-.441-.304-.994-.46-1.66-.468-.68-.015-1.292.123-1.838.412a4.466 4.466 0 0 0-1.413 1.148 6.673 6.673 0 0 0-.975 1.617 7.805 7.805 0 0 0-.516 1.783zM80.878 32.778a3.97 3.97 0 0 0 1.659-.345c.508-.23.938-.558 1.29-.981a3.86 3.86 0 0 0 .773-1.483h1.267a4.506 4.506 0 0 1-.964 2.074 5.16 5.16 0 0 1-4.059 1.873c-.852-.008-1.566-.187-2.141-.536a3.827 3.827 0 0 1-1.357-1.382 5.685 5.685 0 0 1-.661-1.928 7.774 7.774 0 0 1-.011-2.163l.055-.468a8.96 8.96 0 0 1 .606-2.24 7.232 7.232 0 0 1 1.177-1.95 5.372 5.372 0 0 1 1.76-1.35c.68-.334 1.447-.498 2.299-.49.844.007 1.57.2 2.175.58.605.371 1.065.88 1.378 1.527.322.639.468 1.367.438 2.184l-1.245-.01a3.47 3.47 0 0 0-.28-1.573 2.446 2.446 0 0 0-.942-1.125c-.426-.283-.945-.431-1.558-.446-.695-.008-1.304.13-1.827.412-.516.275-.957.65-1.323 1.126a6.3 6.3 0 0 0-.886 1.583 8.249 8.249 0 0 0-.47 1.772l-.068.468a8.997 8.997 0 0 0-.045 1.683c.045.565.168 1.089.37 1.572.21.476.523.862.942 1.16.418.289.968.441 1.648.456z" fill="#44403D"/>
    <path fill-rule="evenodd" clip-rule="evenodd" d="M62.984 16.571h1.312l-2.982 17.121h-1.222l.248-1.469a6.239 6.239 0 0 1-.331.332c-.464.431-.995.77-1.592 1.014a4.65 4.65 0 0 1-1.906.346c-.815-.007-1.48-.204-1.996-.59a3.644 3.644 0 0 1-1.155-1.494 6.32 6.32 0 0 1-.482-1.973 10.115 10.115 0 0 1 .045-2.029l.034-.234a11.22 11.22 0 0 1 .572-2.185 8.036 8.036 0 0 1 1.076-2.017c.448-.61.99-1.096 1.626-1.46.642-.364 1.386-.539 2.23-.524.666.007 1.249.148 1.75.423.5.268.915.632 1.244 1.093.134.183.253.377.358.58l1.17-6.934zm-1.422 8.368c.057-.446-.324-.992-.6-1.312a3.005 3.005 0 0 0-1.01-.758 2.882 2.882 0 0 0-1.3-.29c-.68-.015-1.274.13-1.782.435-.501.297-.927.695-1.278 1.192a6.458 6.458 0 0 0-.841 1.628 9.57 9.57 0 0 0-.449 1.75l-.033.234c-.075.505-.109 1.04-.102 1.605.008.565.09 1.1.247 1.605.165.498.438.907.819 1.226.38.32.9.487 1.558.502.65.007 1.27-.127 1.86-.401a4.904 4.904 0 0 0 1.548-1.16c.14-.153.344-.473.403-.7l.96-5.556z" fill="#44403D"/>
</svg>
