<svg width="301" height="108" viewBox="0 0 301 108" fill="none" xmlns="http://www.w3.org/2000/svg">
<path fill-rule="evenodd" clip-rule="evenodd" d="M284.6 45.4756C282.967 50.6505 279.326 53.9239 275.437 55.8872C271.707 57.7706 267.716 58.4683 264.945 58.4982L264.727 59.7807C271.19 60.1305 275.103 62.2965 277.312 65.0267C279.345 67.5404 279.868 70.4543 279.68 72.6589H280.906C282.595 67.3647 286.263 64.1059 290.149 62.1802C293.875 60.3339 297.825 59.6982 300.514 59.6462L300.752 58.4537C294.312 58.0008 290.425 55.8081 288.215 53.0832C286.171 50.5631 285.625 47.6664 285.742 45.4756H284.6Z" fill="white"/>
<path d="M37.7593 1.19359C37.7593 0.92038 37.5603 0.765589 37.3673 0.801528C33.9956 1.42883 28.0363 1.8993 22.3906 1.97771V3.2323C24.1157 3.31071 26.6248 3.48261 26.6248 4.64372V22.9137C24.4293 22.208 21.9201 21.816 19.0973 21.816C7.57072 21.816 0.121582 29.4219 0.121582 41.7326C0.121582 50.75 4.19901 59.6105 12.9027 59.6105C20.0382 59.6105 25.0566 53.6512 25.0566 53.6512L24.6645 53.0239C24.6645 53.0239 22.3122 54.5138 19.8814 54.5138C14.3926 54.5138 12.0402 46.751 12.0402 35.6165C12.0402 26.5991 14.7846 22.9137 18.3916 22.9137C22.1554 22.9137 26.6248 26.7763 26.6248 31.6959V56.2388C26.7311 57.7259 27.2469 58.9859 28.5851 58.748C32.1137 58.1207 37.4457 57.6502 41.9936 57.5718V56.3172C40.347 56.3172 37.7593 55.7976 37.7593 54.9842V1.19359Z" fill="white"/>
<path d="M69.2901 52.7887C61.0568 52.7887 55.3327 45.0259 55.3327 33.7346C55.3327 28.481 56.5873 23.149 60.2727 22.9921C64.2717 22.9137 67.8786 28.9514 68.1923 35.4596L56.4305 36.9495L56.5873 37.9688L79.17 36.1654C79.0916 26.2854 70.7015 21.816 62.8603 21.816C51.4121 21.816 43.8846 30.9902 43.8846 41.5758C43.8846 52.3182 51.6474 59.6105 60.9 59.6105C67.3298 59.6105 73.838 56.0036 78.1506 50.5148L77.6017 49.9659C77.6017 49.9659 74.1516 52.7887 69.2901 52.7887Z" fill="white"/>
<path d="M107.889 21.7375C102.557 21.7375 99.0283 27.3832 97.6953 34.9108L98.401 35.0676C99.1851 31.0686 100.989 29.0299 102.243 28.481C104.517 27.3832 106.477 30.5197 104.831 34.6755C105.693 35.0676 106.791 35.2244 107.654 35.2244C111.888 35.2244 114.475 31.8527 114.475 28.4026C114.475 24.9524 111.888 21.7375 107.889 21.7375ZM96.6759 22.3648L96.2839 21.9728C92.9121 22.6001 86.9528 23.0705 81.3072 23.149V24.4035C83.0322 24.482 85.5414 24.4035 85.5414 25.815V56.7093L81.2288 57.6502V58.748C87.2665 58.356 95.1861 58.2775 101.145 58.748L101.067 57.1798C99.1067 57.1798 96.6759 56.2017 96.6759 54.8274V22.3648Z" fill="white"/>
<path d="M156.032 35.3028C156.032 25.7366 153.131 21.8944 147.015 21.8944C138.86 21.8944 134.312 28.9514 134.312 28.9514L134.861 29.6572C134.861 29.6572 137.213 27.3832 140.193 27.3832C143.565 27.3832 144.976 30.1276 144.976 36.9495V56.7093L140.663 57.6502V58.748C146.701 58.356 154.621 58.2775 160.58 58.748L160.502 57.1798C158.385 57.1798 156.032 56.2292 156.032 54.6706V35.3028ZM183.398 57.1798C181.438 57.1798 179.007 56.2453 179.007 54.8274V35.3028C179.007 25.7366 175.87 21.8944 170.068 21.8944C162.07 21.8944 156.189 28.9514 156.189 28.9514L156.738 29.6572C156.738 29.6572 159.326 27.3832 162.854 27.3832C166.618 27.3832 167.872 29.8924 167.872 36.9495V56.7093L163.56 57.6502V58.748C169.598 58.356 177.517 58.2775 183.476 58.748L183.398 57.1798ZM132.822 22.3648C132.822 22.0838 132.7 21.9225 132.43 21.9728C129.059 22.6001 123.099 23.0705 117.454 23.149V24.4035C119.1 24.482 121.688 24.8051 121.688 25.815V56.7093L117.375 57.6502V58.748C123.413 58.356 131.332 58.2775 137.292 58.748L137.213 57.1798C135.175 57.1798 132.822 56.1701 132.822 54.8274V22.3648Z" fill="white"/>
<path d="M202.796 88.8132L202.972 87.6479C203.325 85.1525 204.008 82.7395 205.02 80.4088C206.033 78.0782 207.351 76.0065 208.975 74.1938C210.623 72.3576 212.554 70.9098 214.767 69.8504C216.98 68.791 219.44 68.2731 222.147 68.2967C224.831 68.3202 227.114 68.8852 228.998 69.9917C230.881 71.0746 232.388 72.5342 233.518 74.3704C234.671 76.2066 235.46 78.2665 235.884 80.5501C236.307 82.8101 236.378 85.1289 236.095 87.5066L235.954 88.6719C235.601 91.1674 234.907 93.5686 233.871 95.8757C232.858 98.1828 231.528 100.254 229.88 102.091C228.256 103.903 226.337 105.339 224.124 106.399C221.912 107.435 219.451 107.941 216.744 107.917C214.084 107.894 211.8 107.34 209.894 106.258C208.01 105.151 206.504 103.691 205.374 101.879C204.244 100.043 203.467 97.9944 203.043 95.7344C202.619 93.4744 202.537 91.1674 202.796 88.8132ZM207.104 87.6479L206.963 88.8132C206.727 90.5788 206.715 92.368 206.927 94.1807C207.139 95.9934 207.622 97.6648 208.375 99.195C209.152 100.702 210.235 101.926 211.624 102.868C213.013 103.809 214.755 104.292 216.85 104.315C218.992 104.339 220.923 103.903 222.641 103.009C224.36 102.114 225.843 100.914 227.091 99.4069C228.362 97.8767 229.386 96.1817 230.163 94.3219C230.94 92.4386 231.481 90.5553 231.787 88.6719L231.929 87.5066C232.164 85.7645 232.164 83.9872 231.929 82.1745C231.717 80.3382 231.234 78.655 230.481 77.1248C229.727 75.5946 228.656 74.3586 227.267 73.417C225.878 72.4518 224.136 71.9574 222.041 71.9338C219.899 71.8868 217.968 72.3223 216.25 73.2404C214.531 74.135 213.048 75.3474 211.8 76.8776C210.553 78.4078 209.529 80.1146 208.728 81.9979C207.951 83.8577 207.41 85.741 207.104 87.6479Z" fill="white"/>
<path d="M254.106 104.315C255.989 104.315 257.732 103.95 259.332 103.221C260.933 102.491 262.287 101.455 263.393 100.113C264.523 98.7713 265.336 97.2058 265.83 95.4166H269.82C269.349 97.912 268.337 100.101 266.783 101.985C265.23 103.868 263.334 105.339 261.098 106.399C258.885 107.435 256.519 107.941 254 107.917C251.316 107.894 249.068 107.329 247.256 106.222C245.443 105.116 244.019 103.656 242.983 101.843C241.947 100.007 241.252 97.9709 240.899 95.7344C240.57 93.4744 240.558 91.1909 240.864 88.8838L241.041 87.4007C241.37 84.9524 242.006 82.5864 242.947 80.3029C243.889 77.9958 245.125 75.9359 246.655 74.1232C248.209 72.3105 250.057 70.8862 252.199 69.8504C254.342 68.791 256.755 68.2731 259.438 68.2967C262.099 68.3202 264.382 68.9323 266.289 70.1329C268.196 71.31 269.644 72.9226 270.632 74.9707C271.645 76.9953 272.104 79.3024 272.01 81.892L268.09 81.8566C268.161 80.0204 267.866 78.3607 267.207 76.8776C266.571 75.3709 265.583 74.1821 264.241 73.311C262.899 72.4164 261.263 71.9456 259.332 71.8985C257.143 71.875 255.224 72.3105 253.576 73.2051C251.952 74.0761 250.563 75.265 249.41 76.7716C248.256 78.2783 247.326 79.9498 246.62 81.786C245.914 83.6223 245.419 85.4938 245.137 87.4007L244.925 88.8838C244.713 90.6259 244.666 92.4033 244.784 94.216C244.925 96.0052 245.313 97.6648 245.949 99.195C246.608 100.702 247.597 101.926 248.915 102.868C250.234 103.786 251.964 104.268 254.106 104.315Z" fill="white"/>
<path fill-rule="evenodd" clip-rule="evenodd" d="M197.745 52.9709H201.876L192.483 107.211H188.634L189.416 102.557C189.082 102.92 188.735 103.27 188.373 103.609C186.913 104.974 185.242 106.046 183.359 106.822C181.499 107.599 179.498 107.964 177.355 107.917C174.789 107.894 172.694 107.27 171.07 106.046C169.469 104.821 168.257 103.244 167.433 101.314C166.609 99.3833 166.103 97.2998 165.914 95.0634C165.749 92.8269 165.797 90.6846 166.055 88.6365L166.161 87.8949C166.515 85.5879 167.115 83.2808 167.962 80.9737C168.81 78.6431 169.94 76.5126 171.352 74.5822C172.765 72.6517 174.472 71.1098 176.473 69.9562C178.497 68.8027 180.84 68.2495 183.5 68.2965C185.595 68.3201 187.431 68.7674 189.009 69.6384C190.586 70.4859 191.892 71.6395 192.928 73.099C193.351 73.6812 193.726 74.2933 194.055 74.9353L197.745 52.9709ZM193.266 79.4803C193.445 78.0677 192.246 76.336 191.375 75.3237C190.503 74.3114 189.444 73.511 188.196 72.9225C186.972 72.3104 185.607 72.0043 184.1 72.0043C181.958 71.9573 180.086 72.4163 178.485 73.3815C176.908 74.3232 175.566 75.5827 174.46 77.16C173.353 78.7137 172.471 80.4323 171.811 82.3156C171.152 84.1754 170.681 86.0234 170.399 87.8596L170.293 88.6012C170.058 90.202 169.952 91.897 169.975 93.6862C169.999 95.4753 170.258 97.1703 170.752 98.7712C171.27 100.348 172.129 101.643 173.33 102.656C174.53 103.668 176.167 104.198 178.238 104.245C180.286 104.268 182.24 103.844 184.1 102.973C185.96 102.079 187.584 100.855 188.973 99.3009C189.415 98.815 190.057 97.8009 190.24 97.0844L193.266 79.4803Z" fill="white"/>
</svg>
