<svg width="233" height="83" viewBox="0 0 233 83" fill="none" xmlns="http://www.w3.org/2000/svg">
<path fill-rule="evenodd" clip-rule="evenodd" d="M219.794 34.678C218.536 38.6656 215.73 41.1879 212.734 42.7007C209.86 44.152 206.785 44.6896 204.649 44.7127L204.481 45.7009C209.461 45.9704 212.477 47.6394 214.178 49.7432C215.745 51.6802 216.148 53.9255 216.004 55.6242H216.948C218.25 51.5448 221.076 49.0337 224.07 47.5499C226.941 46.1272 229.985 45.6373 232.057 45.5972L232.24 44.6784C227.278 44.3294 224.283 42.6398 222.58 40.5401C221.005 38.5982 220.584 36.3661 220.674 34.678H219.794Z" fill="#44403D"/>
<path d="M29.5894 0.556311C29.5894 0.345788 29.4361 0.226512 29.2873 0.254206C26.6892 0.737574 22.0972 1.1001 17.7469 1.16052V2.12726C19.0762 2.18768 21.0097 2.32013 21.0097 3.21483V17.2929C19.3179 16.7491 17.3844 16.447 15.2093 16.447C6.32739 16.447 0.587402 22.3078 0.587402 31.7939C0.587402 38.7423 3.72929 45.5699 10.436 45.5699C15.9343 45.5699 19.8013 40.9779 19.8013 40.9779L19.4991 40.4945C19.4991 40.4945 17.6865 41.6425 15.8135 41.6425C11.584 41.6425 9.77138 35.6609 9.77138 27.0811C9.77138 20.1327 11.8861 17.2929 14.6655 17.2929C17.5657 17.2929 21.0097 20.2693 21.0097 24.06V42.9718C21.0915 44.1176 21.489 45.0886 22.5202 44.9053C25.2391 44.4219 29.3478 44.0594 32.8522 43.9989V43.0322C31.5833 43.0322 29.5894 42.6318 29.5894 42.0051V0.556311Z" fill="#44403D"/>
<path d="M53.8857 40.3133C47.5415 40.3133 43.1307 34.3316 43.1307 25.631C43.1307 21.5828 44.0975 17.4742 46.9372 17.3533C50.0187 17.2929 52.7981 21.9453 53.0398 26.9603L43.9766 28.1082L44.0975 28.8937L61.4987 27.504C61.4383 19.891 54.9732 16.447 48.9311 16.447C40.1097 16.447 34.3093 23.5163 34.3093 31.6731C34.3093 39.9507 40.2909 45.5699 47.4206 45.5699C52.3751 45.5699 57.3901 42.7905 60.7132 38.5611L60.2903 38.1381C60.2903 38.1381 57.6317 40.3133 53.8857 40.3133Z" fill="#44403D"/>
<path d="M83.6282 16.3866C79.5196 16.3866 76.8006 20.7369 75.7735 26.5373L76.3173 26.6582C76.9215 23.5767 78.3112 22.0057 79.2779 21.5828C81.0301 20.7369 82.5406 23.1537 81.2718 26.356C81.9364 26.6581 82.7823 26.779 83.4469 26.779C86.7097 26.779 88.7036 24.1809 88.7036 21.5224C88.7036 18.8638 86.7097 16.3866 83.6282 16.3866ZM74.988 16.87L74.6859 16.5679C72.0878 17.0512 67.4958 17.4137 63.1455 17.4742V18.4409C64.4748 18.5013 66.4082 18.4409 66.4082 19.5285V43.3343L63.0851 44.0594V44.9053C67.7375 44.6032 73.84 44.5427 78.432 44.9053L78.3716 43.6968C76.8611 43.6968 74.988 42.9432 74.988 41.8842V16.87Z" fill="#44403D"/>
<path d="M120.725 26.8394C120.725 19.4681 118.49 16.5074 113.777 16.5074C107.493 16.5074 103.989 21.9453 103.989 21.9453L104.412 22.4891C104.412 22.4891 106.224 20.7369 108.52 20.7369C111.118 20.7369 112.206 22.8516 112.206 28.1082V43.3343L108.883 44.0594V44.9053C113.535 44.6032 119.638 44.5427 124.23 44.9053L124.169 43.6968C122.538 43.6968 120.725 42.9644 120.725 41.7634V26.8394ZM141.812 43.6968C140.302 43.6968 138.429 42.9768 138.429 41.8842V26.8394C138.429 19.4681 136.012 16.5074 131.541 16.5074C125.378 16.5074 120.846 21.9453 120.846 21.9453L121.269 22.4891C121.269 22.4891 123.263 20.7369 125.982 20.7369C128.882 20.7369 129.849 22.6704 129.849 28.1082V43.3343L126.526 44.0594V44.9053C131.178 44.6032 137.281 44.5427 141.873 44.9053L141.812 43.6968ZM102.841 16.87C102.841 16.6534 102.747 16.5291 102.539 16.5679C99.9406 17.0512 95.3486 17.4137 90.9983 17.4742V18.4409C92.2672 18.5013 94.2611 18.7503 94.2611 19.5285V43.3343L90.9379 44.0594V44.9053C95.5903 44.6032 101.693 44.5427 106.285 44.9053L106.224 43.6968C104.653 43.6968 102.841 42.9189 102.841 41.8842V16.87Z" fill="#44403D"/>
<path d="M156.76 68.0722L156.896 67.1743C157.168 65.2514 157.694 63.392 158.474 61.5962C159.254 59.8003 160.27 58.2039 161.521 56.8072C162.791 55.3922 164.279 54.2766 165.984 53.4603C167.689 52.644 169.585 52.2449 171.671 52.263C173.739 52.2812 175.498 52.7165 176.95 53.5691C178.401 54.4036 179.562 55.5283 180.432 56.9432C181.321 58.3581 181.929 59.9454 182.256 61.705C182.582 63.4464 182.636 65.2333 182.419 67.0654L182.31 67.9633C182.038 69.8862 181.503 71.7365 180.705 73.5142C179.925 75.292 178.9 76.8883 177.63 78.3032C176.378 79.7 174.9 80.8066 173.195 81.6229C171.489 82.4211 169.594 82.8111 167.508 82.7929C165.458 82.7748 163.698 82.3485 162.229 81.514C160.778 80.6615 159.617 79.5368 158.746 78.14C157.875 76.725 157.277 75.1469 156.95 73.4054C156.623 71.6639 156.56 69.8862 156.76 68.0722ZM160.079 67.1743L159.97 68.0722C159.789 69.4327 159.78 70.8114 159.943 72.2081C160.106 73.6049 160.478 74.8929 161.059 76.072C161.657 77.233 162.492 78.1763 163.562 78.9019C164.632 79.6275 165.975 79.9993 167.589 80.0175C169.24 80.0356 170.727 79.7 172.052 79.0107C173.376 78.3214 174.519 77.3962 175.48 76.2353C176.46 75.0561 177.249 73.7501 177.847 72.317C178.446 70.8658 178.863 69.4146 179.099 67.9633L179.208 67.0654C179.389 65.723 179.389 64.3535 179.208 62.9567C179.045 61.5417 178.673 60.2447 178.092 59.0656C177.512 57.8865 176.686 56.9341 175.616 56.2085C174.546 55.4648 173.204 55.0838 171.589 55.0657C169.938 55.0294 168.451 55.365 167.127 56.0725C165.802 56.7618 164.66 57.696 163.698 58.8751C162.737 60.0542 161.948 61.3694 161.331 62.8206C160.732 64.2537 160.315 65.7049 160.079 67.1743Z" fill="#44403D"/>
<path d="M196.297 80.0175C197.748 80.0175 199.091 79.7363 200.324 79.174C201.558 78.6116 202.601 77.8135 203.453 76.7795C204.324 75.7455 204.95 74.5392 205.331 73.1605H208.406C208.043 75.0834 207.263 76.7704 206.066 78.2216C204.868 79.6728 203.408 80.8066 201.685 81.6229C199.98 82.4211 198.156 82.8111 196.215 82.7929C194.147 82.7748 192.415 82.3394 191.018 81.4868C189.622 80.6342 188.524 79.5096 187.726 78.1128C186.928 76.6978 186.393 75.1287 186.12 73.4054C185.867 71.6639 185.857 69.9043 186.093 68.1266L186.229 66.9838C186.483 65.0972 186.973 63.2741 187.699 61.5145C188.424 59.7368 189.377 58.1495 190.556 56.7527C191.753 55.3559 193.177 54.2585 194.828 53.4603C196.478 52.644 198.338 52.2449 200.406 52.263C202.456 52.2812 204.215 52.7528 205.685 53.678C207.154 54.585 208.27 55.8276 209.031 57.4058C209.812 58.9658 210.165 60.7436 210.093 62.739L207.072 62.7118C207.127 61.2968 206.9 60.018 206.392 58.8751C205.902 57.7142 205.14 56.7981 204.106 56.1269C203.072 55.4376 201.812 55.0748 200.324 55.0385C198.637 55.0203 197.159 55.3559 195.889 56.0453C194.637 56.7164 193.567 57.6325 192.678 58.7935C191.789 59.9545 191.073 61.2424 190.529 62.6574C189.984 64.0723 189.603 65.5144 189.386 66.9838L189.222 68.1266C189.059 69.469 189.023 70.8386 189.114 72.2354C189.222 73.614 189.522 74.8929 190.012 76.072C190.519 77.233 191.281 78.1763 192.297 78.9019C193.313 79.6093 194.646 79.9812 196.297 80.0175Z" fill="#44403D"/>
<path fill-rule="evenodd" clip-rule="evenodd" d="M152.867 40.4536H156.051L148.813 82.2485H145.847L146.449 78.6628C146.192 78.9421 145.925 79.2122 145.646 79.4731C144.521 80.5252 143.233 81.3506 141.782 81.9492C140.349 82.5478 138.807 82.829 137.156 82.7927C135.179 82.7746 133.565 82.2939 132.313 81.3506C131.079 80.4073 130.145 79.1919 129.51 77.7044C128.875 76.2169 128.485 74.6115 128.34 72.8882C128.213 71.1649 128.249 69.5141 128.449 67.9359L128.531 67.3645C128.803 65.5868 129.265 63.8091 129.918 62.0313C130.571 60.2355 131.442 58.5938 132.531 57.1063C133.619 55.6188 134.934 54.4306 136.476 53.5417C138.036 52.6529 139.841 52.2266 141.891 52.2629C143.505 52.281 144.92 52.6257 146.136 53.2968C147.351 53.9499 148.358 54.8388 149.156 55.9634C149.482 56.412 149.771 56.8837 150.025 57.3784L152.867 40.4536ZM149.416 60.8806C149.554 59.7921 148.63 58.4577 147.959 57.6777C147.288 56.8977 146.471 56.2809 145.51 55.8274C144.567 55.3558 143.514 55.1199 142.353 55.1199C140.703 55.0836 139.261 55.4374 138.027 56.1811C136.812 56.9067 135.778 57.8772 134.925 59.0926C134.072 60.2899 133.392 61.6141 132.884 63.0653C132.376 64.4984 132.014 65.9224 131.796 67.3373L131.714 67.9087C131.533 69.1423 131.451 70.4484 131.469 71.827C131.488 73.2057 131.687 74.5118 132.068 75.7453C132.467 76.9607 133.129 77.9584 134.054 78.7384C134.979 79.5184 136.24 79.9266 137.837 79.9629C139.415 79.981 140.92 79.6545 142.353 78.9833C143.787 78.294 145.038 77.3507 146.108 76.1534C146.449 75.7791 146.943 74.9976 147.085 74.4455L149.416 60.8806Z" fill="#44403D"/>
</svg>
