<?xml version="1.0" encoding="UTF-8"?>
<!DOCTYPE svg  PUBLIC '-//W3C//DTD SVG 1.1//EN'  'http://www.w3.org/Graphics/SVG/1.1/DTD/svg11.dtd'>
<svg clip-rule="evenodd" fill-rule="evenodd" stroke-linejoin="round" stroke-miterlimit="1.4142" version="1.1" viewBox="0 0 400 400" xml:space="preserve" xmlns="http://www.w3.org/2000/svg"><rect width="400" height="400" fill="#fff" fill-rule="nonzero"/><path d="m259.95 368.72c-5.267 0-9.836-1.344-12.099-7.313-4.292-11.316 5.455-18.393 16.03-23.077 0.012 0.179 0.085 0.357 0.194 0.509 0.097 0.398 0.176 0.86 0.224 1.395-1.615 3.065-5.694 5.043-7.908 6.118-1.3 0.629-1.943 2.138-1.493 3.509 0.535 1.642 1.349 2.614 2.422 2.895-1.067 0.726-2.032 1.658-0.769 2.312 0.687 0.357 1.508 0.483 2.353 0.483 1.175 1e-3 2.402-0.244 3.402-0.458 3.197-0.684 6.529-0.202 9.686-0.886 1.306-0.283 2.092-1.115 2.372-2.4 0.299-1.373-0.189-2.057-1.48-2.622-0.819-0.357-1.7-0.492-2.599-0.492-1.61 0-3.278 0.43-4.755 0.779-0.048 0.011-0.097 0.022-0.145 0.034 2.007-0.992 4.277-2.016 6.733-2.803 0.717-0.229 1.282-0.789 1.516-1.498 0.232-0.71 0.114-1.464-0.325-2.07-1.39-1.917-2.183-4.48-2.609-6.345-8e-3 -0.212-0.029-0.434-0.13-0.597-0.036-0.174-0.068-0.339-0.097-0.493 3.351-1.22 6.499-2.229 8.998-3.09 1.122-0.071 2.263-0.111 3.419-0.111 6.935 0 14.41 1.457 21.578 6.516 5.08 3.585 11.449 9.935 9.908 16.986-1.598 7.309-9.678 10.35-16.365 11.507-3.512 0.607-7.112 0.776-10.747 0.776-2.302 0-4.619-0.068-6.935-0.136-2.317-0.068-4.634-0.136-6.937-0.136-2.451 0-4.887 0.077-7.29 0.313-2.093 0.206-4.171 0.395-6.152 0.395zm14.622-23.003c-0.036 0.18-0.048 0.353-0.033 0.487 0.157 1.403 1.922 2.107 3.107 2.271 1.139 0.158 2.324 0.219 3.526 0.219 2.633 0 5.348-0.288 7.852-0.467 1.297-0.092 4.73-0.515 3.845-2.735-0.255-0.641-1.011-0.87-1.797-0.948-0.151-0.739-0.157-1.547-0.162-2.399-2e-3 -0.341-5e-3 -0.682-0.016-1.016-5e-3 -0.159-0.017-0.327-0.031-0.499-0.022-0.316-0.047-0.643-0.012-0.865 0.032-0.208 0.086-0.391 0.138-0.567 0.013-0.037 0.024-0.076 0.034-0.116 0.083-0.286 0.146-0.562 0.079-0.91-0.1-0.515-0.357-0.99-0.505-1.49-0.078-0.266-0.196-0.473-0.34-0.631-0.292-0.318-0.699-0.437-1.143-0.437-0.824 0-1.778 0.409-2.367 0.712l-0.188 0.097c-0.852 0.441-0.684 0.936-0.534 1.58l-8e-3 0.01c0.03 0.313 0.074 0.622 0.097 0.944-0.227 1.467-2.766 2.042-3.907 2.326-1.768 0.441-3.604 0.687-5.425 0.761-1.187 0.048-2.169 0.976-2.281 2.16-0.058 0.611-0.023 1.108 0.071 1.513z" fill="#e4e4e4" fill-rule="nonzero"/><path d="m243.14 106.75c16.377 4.814 33.733 2.287 49.118-4.713-11.029-5.08-25.496-5.576-35.827-7.335-22.03-3.751-37.57-18.7-53.068-33.114 5.447 20.292 19.819 39.295 39.777 45.162z" fill="#f5f8fc" fill-rule="nonzero"/><path d="m303.62 111.06c-1.573-2.26-3.519-4.119-5.691-5.714-18.222 9.158-39.745 12.305-58.897 5.567-21.784-7.661-38.545-31.039-41.231-54.442-1.389-1.26-2.784-2.509-4.19-3.729-18.976-16.47-38.936-10.487-54.142 3.301 4.51 12.374 9.115 24.712 16.442 35.706 12.98 19.476 33.776 33.336 54.346 43.819 21.064 10.737 44.466 18.356 68.169 19.827 8.501 0.527 16.486 0.089 24.166-1.199-0.09-1.237-0.138-2.516-0.086-3.899 0.472-12.511 9.194-27.634 1.114-39.237z" fill="#f5f8fc" fill-rule="nonzero"/><path d="m139.03 168.23c2.348-23.81-0.341-62.539-20.89-79.54-3.276 12.19-1.787 24.662-1.159 38.239 0.907 19.646-2.947 36.669-11.409 54.466-11.745 24.7-30.812 55.019-28.964 83.974 31.366-25.265 58.239-54.733 62.422-97.139z" fill="#f5f8fc" fill-rule="nonzero"/><path d="m93.203 301.68c22.32-9.22 38.876-37.332 49.973-55.893 11.506-19.246 19.136-40.775 32.377-58.982 5.285-7.269 11.945-15.088 20.813-17.936 12.188-3.916 23.02 5.624 33.651 9.875 17.127 6.85 37.624 6.651 55.778 8.589 11.179 1.194 22.425 2.68 33.403 5.133 3.009 0.672 6.017 1.466 8.984 2.375-1.894-3.401-4.079-6.768-6.597-10.128-7.088-9.459-14.887-14.734-17.855-24.296-30.754 4.065-65.113-5.465-90.779-17.818-21.429-10.315-43.591-24.503-57.818-43.93-8.705-11.888-14.063-25.637-18.797-39.6-5.404 5.518-10.099 11.97-13.774 18.614-1.377 2.489-2.452 4.981-3.328 7.479 8.69 6.063 14.033 17.413 17.333 26.993 5.57 16.172 8.016 34.189 7.136 51.274-2.351 45.581-30.7 81.937-66.399 107.85 1.041 6.182 3.113 12.281 6.549 18.221 2.661 4.602 5.819 8.643 9.35 12.179z" fill="#f5f8fc" fill-rule="nonzero"/><path d="m223.14 246.09c24.454-4.718 48.465 0.525 72.814 3.034 12.412 1.28 25.189 1.736 37.291-1.814 0.95-0.28 1.884-0.585 2.804-0.91 0.422-2.383 0.776-4.778 0.979-7.182 1.216-14.362-0.611-26.847-5.974-38.709-12.068-4.007-25.545-5.632-36.561-7.014-15.49-1.945-31.104-2.776-46.55-5.111-6.836-1.034-13.877-2.088-20.307-4.724-6.808-2.791-12.932-7.456-20.076-9.421-23.51-6.466-39.359 34.831-47.112 50.795-9.082 18.698-19.619 36.725-32.528 53.075-7.924 10.038-18.205 21.45-30.342 27.529 11.098 9.068 25.13 13.748 39.702 14.546 21.701-32.959 44.083-66.036 85.86-74.094z" fill="#f5f8fc" fill-rule="nonzero"/><path d="m315.94 255c-12.68 0.471-25.221-1.291-37.768-3.052-12.116-1.701-24.237-3.402-36.495-3.093-29.449 0.745-54.389 13.67-73.695 35.554-9.882 11.202-18.245 23.562-26.616 35.918 12.161 0.058 24.544-2.541 35.79-7.578 2.086-0.021 4.221 0.086 6.458 0.193 6.551 0.314 13.967 0.628 23.54-2.276 26.176-7.942 49.416-13.284 76.61-16.911 14.636-1.953 28.663-3.504 38.225-15.389 6.243-7.761 10.491-16.954 12.911-26.603-5.915 1.865-12.223 2.986-18.96 3.237z" fill="#f5f8fc" fill-rule="nonzero"/><path d="m246.92 66.245c11.507 3.554 22.456 3.082 33.601 1.244-11.86-5.378-31.18-6.595-39.864-12.228-4.319-2.803-18.594-14.363-27.451-14.46 8.756 11.589 19.337 21.002 33.714 25.444z" fill="#f5f8fc" fill-rule="nonzero"/><path d="m286.48 71.198c-29.054 7.532-60.966-3.872-76.862-29.587-1.911 1.065-3.23 3.242-3.61 6.995 8.409 10.202 9.446 18.956 22.197 26.883 13.395 8.327 25.846 11.157 41.619 13.061 8.651 1.043 28.144-0.964 18.876-14.9-0.594-0.894-1.369-1.693-2.22-2.452z" fill="#f5f8fc" fill-rule="nonzero"/><path d="m80.352 135.14c-0.031 0.582-0.129 1.179-0.214 1.774 7.183-5.385 12.631-12.692 17.438-20.506-1.34-8.218-4.119-14.621-9.208-15.644-14.578 12.401-7.14 17.512-8.016 34.376z" fill="#f5f8fc" fill-rule="nonzero"/><path d="m92.934 164.94c1.588-3.502 2.733-6.571 3.203-8.382 1.554-6.003 3.136-20.653 2.207-33.455-5.287 7.659-11.611 14.632-19.505 19.013-3.287 9.628-10.859 20.235-12.066 29.7 8.12-4.129 17.155-6.547 26.161-6.876z" fill="#f5f8fc" fill-rule="nonzero"/><path d="m66.606 174.93c0.059 1.558 0.32 3.08 0.868 4.548 6.447 17.282 17.824 1.174 24.211-11.883-8.651 0.565-17.31 3.198-25.079 7.335z" fill="#f5f8fc" fill-rule="nonzero"/><path d="m144.38 44.222c-20.94 10.559-48.48 39.638-34.419 64.957 0.114 0.205 0.434 0.066 0.375-0.158-3.676-13.943-1.616-27.249 6.895-39.055 7.555-10.478 18.229-16.621 28.205-24.375 0.818-0.635-0.222-1.789-1.056-1.369z" fill="#f5f8fc" fill-rule="nonzero"/><path d="m175.2 35.2c-17.433-6.85-38.738 1.876-50.599 15.28-0.188 0.213 0.061 0.601 0.324 0.418 15.767-10.921 30.056-19.289 49.931-14.453 0.825 0.201 1.103-0.947 0.344-1.245z" fill="#f5f8fc" fill-rule="nonzero"/><path d="m318.42 97.352c-4.207-0.42-8.354 0.76-12.547 0.778-6.89 0.029-11.153-2.698-15.529-7.776-0.461-0.534-1.227 0.146-0.935 0.721 2.373 4.657 7.043 7.659 12.163 8.499 9.462 1.553 20.835-4.985 26.791 5.951 0.279 0.512 1.003 0.148 0.899-0.379-0.995-5.022-6.105-7.322-10.842-7.794z" fill="#f5f8fc" fill-rule="nonzero"/><path d="m76.339 287.03c-2.131-7.84-6.038-15.047-7.86-23.034-2.159-9.462-1.536-18.184 1.697-27.268 0.473-1.33-1.601-1.865-2.096-0.579-6.487 16.872-3.049 36.365 6.105 51.79 0.678 1.143 2.508 0.393 2.154-0.909z" fill="#f5f8fc" fill-rule="nonzero"/><path d="m230.42 37.456c-1.112-0.935-3.077-0.227-3.077 1.409 0 1.634 1.964 2.349 3.077 1.409 1.134-0.514 1.135-2.306 0-2.818z" fill="#f5f8fc" fill-rule="nonzero"/><path d="m235.58 43.657c-2.032 0-2.035 3.157 0 3.157 2.031 0 2.035-3.157 0-3.157z" fill="#f5f8fc" fill-rule="nonzero"/><path d="m242.82 52.138c-0.024 0.407 0.037 0.647 0.344 0.915 0.234 0.203 0.534 0.205 0.769 0 0.315-0.275 0.369-0.508 0.343-0.915-0.056-0.936-1.398-0.938-1.456 0z" fill="#f5f8fc" fill-rule="nonzero"/><path d="m254.85 54.527c-0.173-1.568-2.27-1.57-2.443 0l-0.029 0.266c-0.178 1.607 2.679 1.61 2.501 0l-0.029-0.266z" fill="#f5f8fc" fill-rule="nonzero"/><path d="m260.46 56.386c-0.011 0.518 0.111 0.836 0.457 1.212 0.342 0.371 1.021 0.371 1.362 0 0.354-0.385 0.468-0.696 0.457-1.212-0.031-1.465-2.245-1.467-2.276 0z" fill="#f5f8fc" fill-rule="nonzero"/><path d="m275.14 51.73c-4.657-1.258-9.525-1.364-14.219-2.429-6.28-1.426-9.705-4.706-13.835-9.282-0.266-0.294-0.789 0.013-0.668 0.389 2.102 6.511 8.735 9.617 14.987 10.969 4.693 1.015 9.578 1.127 14.185 2.558 6.29 1.953 9.95 6.156 12.96 11.818 0.388 0.732 1.552 0.228 1.33-0.562-1.972-7.001-7.894-11.61-14.74-13.461z" fill="#f5f8fc" fill-rule="nonzero"/><path d="m71.909 94.078c-0.232-0.503-0.935-0.126-0.843 0.355 3.401 17.815 6.024 34.673-4.696 50.634-6.244 9.296-16.538 21.651-10.367 33.475 0.269 0.515 1.01 0.146 0.899-0.379-3.894-18.512 12.438-27.892 17.51-43.772 3.923-12.284 2.891-28.623-2.503-40.313z" fill="#f5f8fc" fill-rule="nonzero"/><path d="m229.8 319.27c-9.513 0-19.05-0.378-28.608-1.038-5.082-0.351-10.11-0.46-15.126-0.46-7.45 0-14.871 0.241-22.382 0.286-0.806 4e-3 -1.641 0.018-2.498 0.038 5.473-1.263 10.838-3.053 15.967-5.35 0.178-2e-3 0.356-3e-3 0.535-3e-3 1.916 0 3.877 0.098 5.923 0.196 2.045 0.098 4.176 0.196 6.429 0.196 4.964 0 10.527-0.475 17.111-2.472 17.157-5.206 33.054-9.295 49.628-12.515 0.938 1.547 1.222 3.475 0.556 6.023-1.073 4.104-5.331 8.329-8.624 10.653-5.038 3.557-11.1 4.411-17.088 4.442-0.608 3e-3 -1.215 4e-3 -1.823 4e-3zm-87.067-0.968c-1.352-0.058-2.704-0.144-4.045-0.265 11.188-16.959 22.662-33.802 36.976-47.109 2.244-0.159 4.452-0.261 6.642-0.262-5.07 4.072-9.849 8.665-14.327 13.74-9.343 10.591-17.328 22.217-25.246 33.896zm-31.138-22.429c0.817-5.786 6.003-10.272 13.06-13.734-3.893 4.688-8.262 9.479-13.06 13.734z" fill="#e4e4e4" fill-rule="nonzero"/><path d="m138.69 318.04c-10.042-0.911-19.497-3.833-24.518-12.12-2.253-3.719-2.997-7.055-2.575-10.044 4.798-4.255 9.167-9.046 13.06-13.734 11.097-5.445 26.818-8.356 37.434-9.794 3.256-0.442 6.032-0.745 8.047-0.94 1.869-0.181 3.71-0.348 5.528-0.477-14.314 13.307-25.788 30.15-36.976 47.109z" fill="#d9dbe0" fill-rule="nonzero"/><path d="m147.88 318.41c-1.704 0-3.424-0.028-5.143-0.102 7.918-11.679 15.903-23.305 25.246-33.896 4.478-5.075 9.257-9.668 14.327-13.74h0.04c5.745 0 11.354 0.695 17.067 2.868 7.152 2.722 14.202 5.718 21.005 9.163 9.529 4.826 20.286 6.459 29.875 10.742 2.853 1.274 5.244 2.658 6.486 4.709-16.574 3.22-32.471 7.309-49.628 12.515-6.584 1.997-12.147 2.472-17.111 2.472-2.253 0-4.384-0.098-6.429-0.196-2.046-0.098-4.007-0.196-5.923-0.196-0.179 0-0.357 1e-3 -0.535 3e-3 -5.129 2.297-10.494 4.087-15.967 5.35-4.048 0.091-8.615 0.308-13.31 0.308z" fill="#d9dbe0" fill-rule="nonzero"/><path d="m232.59 286.56c0 5.557-4.399 10.078-9.805 10.078h-97.096c-5.406 0-9.805-4.521-9.805-10.078v-205.56c0-5.557 4.399-10.078 9.805-10.078h97.096c5.406 0 9.805 4.521 9.805 10.078v205.56z" fill="#fff" fill-rule="nonzero"/><path d="m222.79 66.108h-97.096c-8.004 0-14.493 6.67-14.493 14.896v205.56c0 8.227 6.489 14.896 14.493 14.896h97.096c8.004 0 14.493-6.669 14.493-14.896v-205.56c0-8.226-6.489-14.896-14.493-14.896z" fill="#8189c4" fill-rule="nonzero"/><path d="m232.59 286.56c0 5.557-4.399 10.078-9.805 10.078h-97.096c-5.406 0-9.805-4.521-9.805-10.078v-205.56c0-5.557 4.399-10.078 9.805-10.078h97.096c5.406 0 9.805 4.521 9.805 10.078v205.56z" fill="#fff" fill-rule="nonzero"/><clipPath id="b"><path d="m232.59 286.56c0 5.558-4.399 10.079-9.805 10.079h-97.096c-5.406 0-9.805-4.521-9.805-10.079v-205.56c0-5.557 4.399-10.078 9.805-10.078h97.096c5.406 0 9.805 4.521 9.805 10.078v205.56z"/></clipPath><g clip-path="url(#b)" fill="#e0f3f9" fill-rule="nonzero"><path d="m243.52 173.32c-0.025-0.889-0.134-1.79-0.347-2.707-4.736-20.319-24.423-24.592-41.404-18.677 8.915 13.584 25.49 20.748 41.751 21.384z"/><path d="m117.13 240.7c11.977-11.31 19.392-26.472 33.576-35.518 6.653-4.244 14.118-7.29 21.964-8.361 8.165-1.114 15.852 0.496 23.809 2.222 10.805 2.345 21.523 4.742 32.241 5.209 0.54-4.058 2.892-7.904 5.583-11.741-19.616-1.523-38.26-15.644-58.634-12.843-12.339 1.696-21.147 10.636-32.272 15.356-2.528 1.073-5.226 1.937-7.842 2.261-1.298 4.81-3.183 9.559-6.297 10.822-0.8 0.327-1.624 0.517-2.465 0.611-2.536 8.354-8.786 15.013-16.358 20.604-6.584 4.862-10.84 10.066-12.623 17.662 1.391 4.552 3.201 9.221 5.27 13.743 2.853-7.448 7.57-13.91 14.048-20.027z"/><path d="m124.71 251.9c7.165-9.479 17.105-16.436 28.406-20.081 11.108-3.583 22.402-2.689 33.742-0.79 13.011 2.18 25.99 5.678 39.251 5.816 8.164 0.085 15.183-1.594 21.355-5.156-6.126-6.192-12.927-11.979-16.979-19.026-1.206-2.098-1.76-4.116-1.859-6.079-6.536-0.316-13.096-1.357-19.536-2.651-9.038-1.816-18.232-4.783-27.457-5.36-8.511-0.533-16.968 1.549-24.548 5.365-15.226 7.665-23.305 21.534-34.451 33.635-5.094 5.531-11.026 9.891-15.036 16.398-1.609 2.612-2.867 5.351-3.844 8.18 2.785 5.887 5.986 11.46 9.251 16.137 1.898-9.532 5.897-18.705 11.705-26.388z"/><path d="m162.98 272.57c2.493-6.156 18.456-21.415 6.041-24.761-10.74-2.896-24.56 5.476-32.475 11.979-8.521 7-12.461 17.34-16.558 27.358 7.917 9.132 19.83 20.432 29.773 21.736 4.769-1.862 10.154-3.964 15.954-6.035-6.759-8.311-6.611-20.707-2.735-30.277z"/><path d="m260.65 255.66c-0.539-9.007-5.436-15.816-11.341-22.058-5.382 3.118-11.582 4.864-18.039 5.299-23.893 1.612-47.383-11.335-71.178-6.858-13.777 2.591-26.356 10.61-34.642 21.886-5.877 7.996-9.206 16.943-10.995 26.38 0.145 0.194 0.29 0.401 0.435 0.591 1.159 1.524 2.563 3.278 4.148 5.145 4.096-10.713 8.297-21.512 17.639-28.771 8.102-6.294 19.958-12.932 30.624-11.712 11.397 1.302 9.049 10.387 4.061 17.411-3.638 5.124-6.803 9.508-8.171 15.87-1.774 8.251-0.53 16.426 4.475 23.274l0.016 0.036c3.543-1.238 7.224-2.454 11.025-3.586-10.411-16.53-5.177-38.196 15.188-43.511 12.198-3.184 24.955-0.032 36.918 2.617 10.355 2.29 20.124 3.721 29.782 1.941 0.104-1.277 0.136-2.591 0.055-3.954z"/><path d="m143.69 164.23c-5.015 6.459-9.071 13.734-12.267 21.25-1.466 3.444-2.563 6.994-3.852 10.499-0.795 2.158-1.964 4.943-4.108 6.107-2.504 1.359-5.302 0.231-7.897-0.128-13.928-1.925-26.75 8.585-27.724 22.562-0.039 0.568 0.812 0.547 0.873 0 0.973-8.723 5.962-16.406 14.194-19.883 4.367-1.846 9.043-2.292 13.699-1.485 2.719 0.473 5.295 1.237 7.766-0.424 4.82-3.237 5.958-11.719 8.078-16.647 3.246-7.544 7.482-14.415 12.18-21.125 0.386-0.551-0.523-1.265-0.942-0.726z"/><path d="m241.94 156.8c-9.93-9.365-25.577-13.564-38.775-9.784-0.5 0.143-0.286 0.857 0.212 0.768 12.421-2.212 25.102-0.401 35.3 7.486 5.505 4.257 9.4 9.91 9.065 17.129-0.303 6.546-2.978 14.755-8.169 19.014-0.407 0.334 0.14 1.054 0.568 0.736 5.341-3.98 7.82-11.307 8.618-17.713 0.866-6.961-1.803-12.906-6.819-17.636z"/><path d="m130.54 178.31c-3.003 2.1-4.146 5.417-5.48 8.694-1.009 2.48-1.885 6.125-3.437 8.266-3.305 4.562-7.447 1.746-11.002-0.21-0.455-0.25-1.025 0.403-0.582 0.753 3.107 2.449 8.243 5.006 11.66 1.588 1.724-1.723 2.421-4.744 3.298-6.923 1.513-3.757 2.667-8.666 6.157-11.118 0.635-0.446 0.03-1.5-0.614-1.05z"/><path d="m165.62 68.914c-2.66-3.169-5.824-5.679-9.281-7.568-6.724 0.759-13.671 2.001-20.399 3.853-0.914 2.169-1.474 4.531-1.6 7.232-0.223 4.79 0.618 9.571 1.112 14.321 1 9.615-0.273 18.455-5.33 26.873-7.549 12.567-19.929 21.116-32.722 28.487 0.034 0.225 0.073 0.451 0.105 0.676 0.869 6.027 1.78 12.027 2.447 18.054 6.447-7.241 14.65-13.111 22.96-18.097 7.365-4.42 14.819-7.117 22.971-9.652 9.332-2.902 14.748-8.425 19.265-16.796 7.478-13.859 11.531-34.208 0.472-47.383z"/><path d="m211.56 85.241c-2.325 7.847-6.596 15.252-7.503 23.484-0.658 5.967 2.11 10.62 8.669 8.582 4.881-1.516 9.226-4.799 13.594-7.358 7.176-4.203 13.439-5.344 21.226-1.725 1.941 0.902 3.795 1.976 5.653 3.041 0.659-5.163 1.521-10.363 1.012-15.568-1.317-13.477-6.923-22.833-19.383-28.601-7.626-3.53-16.977-4.85-25.619-4.506 3.975 6.687 4.884 14.104 2.351 22.651z"/><path d="m253.07 125.11c-0.8-4.103-0.534-8.248-0.043-12.419-1.411-0.748-2.838-1.525-4.298-2.294-4.993-2.628-10.548-4.324-16.039-2.216-4.983 1.912-9.345 5.275-14.019 7.804-5.071 2.744-13.475 5.952-15.668-1.883-2.195-7.841 2.896-17.393 5.591-24.502 1.877-4.952 3.512-10.226 3.206-15.577-0.246-4.296-1.836-7.993-4.077-11.357-1.162 0.073-2.311 0.171-3.436 0.303-3.635 0.427-6.127 3.355-9.749 3.216 4.352 2.638 3.076 16.353 3.168 21.034 0.237 12.101-6.717 26.094-2.432 38.035 5.051 14.076 23.79 4.355 33.229 2.028 6.222-1.534 14.564-2.153 20.585 0.61 3.202 1.47 6.222 6.591 9.852 6.231-4.383-0.645-5.205-5.603-5.87-9.013z"/><path d="m256.13 138.08c-11.428-8.229-25.725-3.804-38.193-1.085-7.057 1.539-14.438 2.514-21.488 0.384-3.332-1.007-6.342-2.699-8.801-5.177-2.025-2.042-3.668-4.454-5.845-6.348-3.68-3.202-8.054-3.481-12.194-0.933-5.091 3.135-8.895 7.711-14.337 10.435-10.239 5.127-22.028 6.544-31.89 12.508-12.226 7.395-16.227 21.127-18.11 34.499-0.076 0.539 0.736 0.786 0.834 0.23 2.2-12.345 5.336-25.381 16.429-32.783 9.094-6.068 20.24-7.735 30.175-11.941 4.719-1.998 8.83-4.62 12.671-7.996 2.301-2.022 4.749-4.433 7.793-5.255 3.78-1.021 6.799 0.915 9.29 3.566 3.597 3.826 6.417 7.588 11.441 9.644 5.046 2.065 10.691 2.419 16.066 1.857 14.769-1.544 31.793-10.325 45.454-0.398 0.727 0.528 1.43-0.685 0.705-1.207z"/><path d="m157.61 140.52c-9.657 9.55-24.232 8.058-35.248 15.155-10.369 6.681-16.067 18.67-17.36 30.642-0.06 0.552 0.786 0.536 0.856 0 1.705-13.041 8.737-26.109 21.123-31.725 10.103-4.581 23.878-4.08 31.488-13.214 0.492-0.591-0.293-1.417-0.859-0.858z"/><path d="m185.39 60.643c-0.332-0.573-1.19-0.066-0.885 0.518 4.317 8.253 6.913 17.672 4.582 26.942-1.899 7.548-7.602 14.922-4.52 22.96 0.297 0.774 1.53 0.471 1.269-0.35-2.93-9.224 4.368-17.552 5.248-26.556 0.799-8.178-1.613-16.474-5.694-23.514z"/><path d="m146.87 154.71c-9.94 3.363-21.464 2.435-29.863 9.543-7.525 6.368-10.585 16.587-7.914 26.049 0.178 0.631 1.124 0.366 0.979-0.27-2.32-10.234 1.407-20.92 10.406-26.649 8.168-5.201 18.303-3.566 26.88-7.514 0.649-0.299 0.19-1.388-0.488-1.159z"/><path d="m246 262.69c-7.58 9.219-21.752 3.596-31.456 1.519-8.382-1.793-17.764-4.593-25.181 1.319-14.132 11.266-9.584 33.466 2.836 43.933 0.521 0.439 1.264-0.273 0.759-0.759-6.52-6.286-11.022-14.42-10.876-23.682 0.148-9.417 5.594-20.288 15.859-21.518 5.061-0.606 10.156 0.852 15.067 1.908 4.757 1.023 9.504 2.13 14.281 3.055 6.905 1.336 15.368 1.551 19.854-4.893 0.467-0.671-0.617-1.521-1.143-0.882z"/><path d="m240.39 270.42c-10.873 7.472-23.324-3.165-34.746-3.504-4.256-0.126-8.717 0.869-11.954 3.774-3.677 3.302-4.648 8.223-4.617 12.95 4e-3 0.544 0.8 0.532 0.837 0 0.452-6.338 2.796-12.414 9.321-14.509 5.14-1.652 10.555-0.572 15.56 1.011 7.7 2.435 19.246 8.117 26.313 1.205 0.468-0.457-0.151-1.315-0.714-0.927z"/><path d="m226.28 277.36c-0.054-1.024-1.622-1.04-1.605 0 0.046 2.921 0.223 6.473-2.053 8.702-2.149 2.106-5.366 2.026-8.15 2.056-4.655 0.051-9.995 0.108-14.407 1.788-6.471 2.467-7.559 10.954-2.145 15.114 0.371 0.284 0.829-0.328 0.496-0.642-4.651-4.384-3.254-11.545 3.04-13.383 4.705-1.374 9.733-1.131 14.567-1.218 2.963-0.053 6.068-0.547 8.126-2.88 2.305-2.611 2.306-6.261 2.131-9.537z"/><path d="m234.72 259.54c-2.549 2.407-4.638 4.336-8.451 3.697-2.531-0.423-4.944-1.639-7.302-2.6-4.258-1.733-8.952-3.904-13.522-2.086-0.449 0.178-0.455 1.004 0.127 0.935 6.934-0.809 12.347 3.176 18.721 5.002 4.764 1.366 8.695-0.084 11.517-4.107 0.466-0.664-0.536-1.363-1.09-0.841z"/></g><path d="m226.41 81.006v136.4h-104.32v-136.4c0-2.142 1.61-3.888 3.604-3.888h97.104c1.993 0 3.615 1.746 3.615 3.888z" fill="#a3add8" fill-rule="nonzero"/><path d="m212.13 163.67 1.602-4.979c0.279-0.864 0.728-1.661 1.32-2.351 0.866-1.011 1.954-3.055 2.382-5.627 0.486-2.914-0.792-7.983-2.011-10.997-0.185-0.456-0.368-0.864-0.544-1.212-0.288-0.57-1.117-0.548-1.368 0.04-1.134 2.647-1.457 7.538-1.545 9.59-0.015 0.35-0.449 0.505-0.68 0.24-0.607-0.696-1.486-1.809-1.934-2.865-0.21-0.496-0.941-0.428-1.029 0.105-0.203 1.221 0.14 2.618 0.56 3.756 1.05 2.842 1.422 5.912 0.826 8.882-0.213 1.059-0.542 2.086-1.044 2.94-2.007 3.419 3.465 2.478 3.465 2.478z" fill="#f9b09d" fill-rule="nonzero"/><path d="m170.77 152.24c0.167-0.261 0.313-0.547 0.444-0.844 0.374-0.854 1.76-1.241 2.635-1.494 2.013-0.581 4.442-0.687 6.044-2.196 1.484-1.396 0.935-2.874 0.207-4.647-0.943-2.3-1.638-3.486-0.176-5.659 3.213-4.775-0.208-8.948-0.44-13.919-0.22-4.751 1.738-9.223 1.97-13.94 0.26-5.277-1.729-11.783-6.925-14.106-5.276-2.359-12.322-2.924-17.342 0.222-1.74 1.09-3.52 2.31-5.002 3.71-1.468 1.385-3.486 1.982-5.029 3.288-1.604 1.358-2.715 3.13-3.399 5.108-0.561 1.623-0.892 3.329-0.844 5.054 0.092 3.261 2.857 6.051 3.049 9.393 0.191 3.337-2.178 5.914-4.142 8.333-1.548 1.907-1.007 3.631-1.386 5.865-0.526 3.096-2.825 5.384-3.192 8.688-0.862 7.747 7.088 12.866 14.063 12.105 4.062-0.444 7.424-3.014 11.47-3.538 1.977-0.256 3.87 0.161 5.816-7e-3 1.016-0.088 1.689-0.65 2.179-1.416z" fill="#2c3e61" fill-rule="nonzero"/><path d="m148 197.71c-0.285 0.298-1.09-0.643-1.374-0.878-1.127-0.979-2.204-1.994-3.343-2.947-1.399-1.164-3.677-2.476-4.235-4.259-0.433-1.399 0.644-4.136 1.14-5.436 1.002-2.575 1.894-5.2 3.021-7.713 0.235-0.495 1.064-2.885 1.609-2.711l0.099 0.037c0.434 0.297 0.582 1.473 0.718 1.869 0.557 1.672 0.582 3.417 1.028 5.089 0.396 1.548 0.842 3.268 0.99 4.878 0.186 1.919 0.236 3.888 0.236 5.832 0 1.646 0 3.305 0.087 4.94 0 0.297 0.247 1.064 0.024 1.299zm66.622-35.434c-1.101-0.78-2.364-1.424-3.528-1.956-0.829-0.397-1.597-0.731-2.241-1.015-2.365 3.491-3.987 7.515-5.819 11.44-0.904 1.956-1.635 4.024-2.625 5.893-0.817 1.51-1.535 2.835-1.795 4.457-1.585-4.147-3.219-8.605-5.089-12.814-3.479-7.85-9.038-14.226-15.699-19.377-0.186-0.148-0.384-0.284-0.57-0.433-1.448-1.115-3.219-2.055-4.989-2.835-0.396-0.186-0.792-0.347-1.176-0.52l-0.223-0.087c-0.124-0.049-0.26-0.099-0.384-0.149l-0.706-0.259-0.21-0.087c-0.273-0.112-0.545-0.211-0.817-0.322-0.099-0.037-0.199-0.074-0.31-0.111l-0.012-0.013-0.149-0.049-0.025-0.013c-2.748-1.077-5.472-2.142-8.468-2.476-1.56-0.186-3.232-0.384-4.804-0.26-0.718 0.062-1.486 0.297-2.216 0.631l-0.198 0.087c-0.211 0.099-0.409 0.198-0.607 0.297-0.397 0.223-0.768 0.471-1.09 0.743l-0.024 0.013-0.161 0.111c-0.384 0.309-0.756 0.631-1.127 0.966-2.501 2.216-4.829 4.791-7.478 6.809-0.817 0.619-1.696 1.127-2.514 1.709-0.742 0.507-1.436 1.077-2.005 1.82-0.792 1.027-0.867 2.365-1.325 3.59-0.582 1.585-1.449 3.083-1.783 4.742-0.619 3.084-1.474 5.869-2.55 8.853-1.139 3.169-2.006 6.562-2.873 9.806-0.78 2.909-1.782 5.125-1.782 8.233 0 4.21 0.111 6.017 3.774 8.568 2.701 1.857 4.769 3.974 7.245 6.079 3.491 2.983 7.54 6.03 11.44 8.295 0.136 1.052-0.359 2.167-0.434 3.232-0.024 0.507-0.024 1.015-0.012 1.535h37.428c0.892-1.498 0.495-3.702 0.024-5.25-0.284-0.94-0.717-1.745-0.891-2.711-0.247-1.412-0.148-2.934-0.272-4.371-0.273-2.996-0.904-5.868-1.511-8.827-0.681-3.393-1.931-7.058-1.696-10.524 0.149-2.439 0.174-4.569 0.83-6.859 0.891 4.494 4.036 8.171 6.599 11.799 1.919 2.687 3.306 7.465 7.094 7.639 3.789 0.173 5.757-3.616 7.652-6.376 3.132-4.569 6.92-9.348 8.604-14.684 1.313-4.21 1.982-8.345 4.136-12.072-0.458-1.114-1.448-2.08-2.638-2.897z" fill="#fff" fill-rule="nonzero"/><path d="m149.9 120.44c0.064-1.4 1.012-2.002 2.312-1.574 0.835 0.275 1.118 0.919 1.395-0.13 0.26-0.985 0.467-2.194 0.251-3.201-0.779-3.623 0.315-7.164 4.567-6.953 1.128 0.056 2.244 0.239 3.368 0.332 1.189 0.098 2.183-0.275 3.36-0.399 0.795-0.083 1.704-0.051 2.481 0.067 0.726 0.11 1.427 0.605 2.108 0.833 0.844 0.282 1.649 0.647 2.45 1.058 2.305 1.183 2.265 3.688 2.596 6.023 0.266 1.87 0.84 3.669 1.041 5.538 0.379 3.525-0.091 7.613-2.409 10.46-1.168 1.437-2.83 2.375-4.118 3.692-1.682 1.722-2.017 3.566-1.453 5.911 0.476 1.98 0.774 3.938 0.993 5.99 0.412 3.856 0.957 9.068-1.727 12.226-1.068 1.256-3.146 2.13-4.822 2.159-1.606 0.028-2.29-1.39-2.851-2.744-0.687-1.662-1.215-3.329-2.07-4.956-0.857-1.633-2.018-3.063-2.962-4.642-0.588-0.982-0.804-1.93-1.244-2.939-0.524-1.201-1.226-2.287-1.453-3.605-0.17-0.997 0.363-1.474 1.04-2.132 0.916-0.889 1.51-1.964 1.688-3.273 0.344-2.544 0.693-5.142 0.671-7.707-0.015-1.805-0.032-4.274-1.132-5.798-1.158-1.603-4.201-1.572-4.08-4.236z" fill="#f9b09d" fill-rule="nonzero"/><path d="m173.71 217.41h-6.908c-0.223-0.446-0.359-0.916-0.458-1.387-0.347-1.535-0.236-3.194-0.396-4.841v-0.012c-0.199-2.117-0.397-4.21-0.595-6.327-0.507-5.398-1.027-10.797-1.535-16.207-0.235-2.563-0.334-5.187-0.73-7.725v-0.013l-0.025-0.124c-0.099-0.681-0.607-3.937-1.189-7.676v-0.013c-0.062-0.408-0.136-0.829-0.198-1.262-0.05-0.335-0.099-0.681-0.161-1.016-0.631-4.085-1.288-8.245-1.56-9.966v-0.013c-0.024-0.198-0.049-0.359-0.062-0.483v-0.012c-0.012-0.111-0.037-0.223-0.062-0.334l1.697-0.223h0.012l3.702-0.507h0.012l2.068-0.273 0.718-0.099 0.012 1.04v0.012l0.038 2.254v0.012l0.024 1.845 0.174 12.579v0.037l0.037 2.724c0.396 2.538 0.804 5.088 1.213 7.627 0.792 4.977 1.597 9.954 2.39 14.931 0.545 3.405 1.337 6.872 1.646 10.314 0.025 0.26 0.025 0.52 0.025 0.767v0.013c-0.012 0.284-0.025 0.556-0.049 0.842-0.013 0.383-0.037 0.78-0.037 1.175v0.026c0 0.47 0.049 0.966 0.111 1.448 0.037 0.285 0.061 0.582 0.086 0.867z" fill="#a1716e" fill-rule="nonzero"/><path d="m167.83 172.08c0.125 2.727 0.36 4.716 0.494 7.318-0.259-3.575 0.428-6.907 0.739-10.499 0.361-4.147 2.334-8.469 4.096-12.137 0.42-0.872 0.47-1.678 0.453-2.627-8e-3 -0.906-0.444-1.661-0.621-2.551-0.193-0.991-0.42-1.973-0.554-2.979-0.134-0.907-0.067-1.831-0.159-2.745l-9e-3 -0.227c-0.839-0.378-1.678-0.714-2.484-1.015-0.504-0.194-1.007-0.387-1.511-0.579-0.017 0.192-0.042 0.394-0.059 0.595-0.042 0.471-0.117 0.949-0.168 1.427-0.033 0.328-8e-3 0.655-0.024 0.982-0.06 1.486-0.412 2.963-0.412 4.465 9e-3 2.493-0.185 4.944-0.285 7.42-0.067 1.703-0.059 3.374-0.109 5.069 0 0.101-8e-3 0.193-8e-3 0.294-0.102 2.619 0.503 5.178 0.621 7.789z" fill="#eef7fc" fill-rule="nonzero"/><path d="m149.56 144.14c0.042 0.504 0.142 0.999 0.26 1.427 0.788 2.787 0.562 5.799 0.956 8.746 0.378 2.82 2.502 4.691 3.912 7.142 1.704 2.963 3.416 5.959 5.002 9.048 0.99 1.947 1.276 3.936 1.989 5.917 0.546 1.502 1.05 2.946 1.419 4.482-0.068-2.509-0.135-4.272-0.302-5.993-0.336-3.34-1.327-6.698-2.057-9.979-0.36-1.629-0.546-3.299-0.898-4.935-0.327-1.469-0.394-2.82-0.612-4.306-0.471-3.13-2.644-6.194-4.759-8.527-1.436-1.587-1.666-3.752-1.716-5.708-0.856 0.344-1.415 1.192-2.07 1.721-0.377 0.31-0.755 0.629-1.124 0.965z" fill="#eef7fc" fill-rule="nonzero"/><path d="m156.13 207.19-3.865 3.196s3.412 1.84 5.751 4.264c1.249 1.294 3.03 1.903 4.808 1.628 3.884-0.6 9.519-0.019 12.48 0.532 0.839 0.156 1.412-0.798 0.894-1.476-1.557-2.036-5.158-4.341-9.459-4.205-1.924 0.061-2.975 0.21-3.617 0.386-1.065 0.29-2.205 0.043-3.021-0.703l-3.971-3.622z" fill="#f9b09d" fill-rule="nonzero"/><path d="m156.59 207.01-0.217-0.088c-0.122-0.12-0.124-0.316-3e-3 -0.438l0.888-0.907-8.91-6.944c-0.135-0.105-0.159-0.299-0.054-0.434s0.299-0.158 0.434-0.054l9.458 7.37-1.375 1.402-0.221 0.093z" fill="#212c47" fill-rule="nonzero"/><path d="m150.32 212.55-0.232-0.105c-0.113-0.128-0.101-0.322 0.026-0.436l1.554-1.376c0.126-0.114 0.324-0.102 0.436 0.027 0.113 0.127 0.102 0.322-0.027 0.436l-1.552 1.377-0.205 0.077z" fill="#212c47" fill-rule="nonzero"/><path d="m145.36 172.96-0.158-0.043c-0.146-0.087-0.195-0.277-0.108-0.424 0.275-0.461 0.558-1.078 0.865-1.883l0.405-1.05c1.059-2.728 1.455-3.748 1.413-7.089-1e-3 -0.171 0.136-0.311 0.306-0.313h4e-3c0.169 0 0.307 0.135 0.31 0.305 0.043 3.461-0.396 4.591-1.455 7.322l-0.404 1.046c-0.321 0.838-0.619 1.486-0.911 1.978-0.058 0.098-0.161 0.151-0.267 0.151z" fill="#212c47" fill-rule="nonzero"/><path d="m183.68 177.28-0.138-0.033c-0.153-0.076-0.214-0.261-0.139-0.414 0.022-0.048 1.584-3.559-3.71-11.583-0.093-0.143-0.054-0.334 0.089-0.429 0.142-0.094 0.335-0.055 0.429 0.088 5.536 8.394 3.822 12.049 3.746 12.2-0.054 0.108-0.164 0.171-0.277 0.171z" fill="#212c47" fill-rule="nonzero"/><path d="m160.03 150.17-0.091-0.013c-0.018-5e-3 -1.698-0.511-3.13-0.431-0.185 0.02-0.318-0.12-0.327-0.29-0.011-0.171 0.12-0.317 0.29-0.327 1.558-0.091 3.276 0.433 3.348 0.456 0.163 0.05 0.255 0.224 0.206 0.387-0.041 0.132-0.164 0.218-0.296 0.218z" fill="#f58460" fill-rule="nonzero"/><path d="m165.36 149.94-0.212-0.085c-0.124-0.117-0.129-0.313-0.012-0.437 0.035-0.036 0.851-0.885 2.051-0.934h0.013c0.164 0 0.302 0.131 0.309 0.297 7e-3 0.171-0.126 0.315-0.296 0.322-0.944 0.038-1.621 0.734-1.628 0.741l-0.225 0.096z" fill="#f58460" fill-rule="nonzero"/><path d="m165.56 136.04c-0.742 0-1.558-0.043-2.398-0.165-4.04-0.578-6.682-2.67-7.639-6.051-0.047-0.164 0.049-0.335 0.214-0.382 0.162-0.047 0.335 0.05 0.381 0.214 2.149 7.586 12.611 5.494 12.717 5.471 0.171-0.039 0.333 0.073 0.367 0.24 0.035 0.167-0.072 0.331-0.239 0.366-0.082 0.017-1.495 0.307-3.403 0.307z" fill="#f58460" fill-rule="nonzero"/><path d="m151.18 120.47h7e-3 -7e-3zm0.889 2.239-0.173-0.051c-1.319-0.88-1.335-2.135-1.335-2.188 0-0.171 0.139-0.309 0.31-0.309 0.17 0 0.308 0.137 0.309 0.307 1e-3 0.045 0.028 0.986 1.061 1.674 0.141 0.095 0.18 0.287 0.086 0.43-0.06 0.089-0.159 0.137-0.258 0.137z" fill="#f37652" fill-rule="nonzero"/><path d="m195.75 188.55-0.037-2e-3c-0.169-0.019-0.291-0.173-0.271-0.343 0.338-2.913 2.627-5.886 2.726-6.011 0.104-0.135 0.298-0.158 0.434-0.054 0.135 0.105 0.159 0.299 0.054 0.435-0.023 0.029-2.281 2.962-2.599 5.702-0.018 0.157-0.152 0.273-0.307 0.273z" fill="#212c47" fill-rule="nonzero"/><path d="m213.02 153.67-0.218-0.09c-0.121-0.122-0.121-0.317 0-0.438 0.328-0.328 0.696-0.802 0.586-1.193-0.122-0.436-0.809-0.695-1.04-0.75l-0.201-0.156-0.832-1.563c-0.08-0.151-0.022-0.339 0.128-0.419 0.151-0.078 0.338-0.023 0.419 0.128l0.771 1.448c0.332 0.108 1.152 0.439 1.35 1.145 0.154 0.546-0.096 1.15-0.744 1.798l-0.219 0.09z" fill="#f58460" fill-rule="nonzero"/><path d="m175.58 216.3c-0.115 0-0.225-0.064-0.279-0.174-0.011-0.022-1.135-2.23-5.21-3.59-0.162-0.056-0.25-0.23-0.197-0.392 0.057-0.162 0.231-0.25 0.392-0.197 4.348 1.453 5.524 3.811 5.573 3.91 0.073 0.153 9e-3 0.336-0.145 0.411l-0.134 0.032z" fill="#f58460" fill-rule="nonzero"/><path d="m173.98 216.3-0.065-7e-3c-0.161-0.034-0.265-0.189-0.24-0.35 0-0.055-0.053-1.094-3.599-2.476-0.16-0.063-0.239-0.242-0.176-0.401 0.06-0.158 0.237-0.241 0.4-0.175 4.097 1.595 4.037 2.917 3.984 3.165-0.032 0.145-0.161 0.244-0.304 0.244z" fill="#f58460" fill-rule="nonzero"/><path d="m160.25 213.08-0.163-0.046c-0.145-0.091-0.19-0.281-0.101-0.426 0.683-1.106 1.622-0.915 1.662-0.906 0.166 0.037 0.272 0.203 0.236 0.37-0.037 0.165-0.194 0.272-0.366 0.237-0.026-8e-3 -0.563-0.088-1.004 0.625-0.059 0.095-0.16 0.146-0.264 0.146z" fill="#f58460" fill-rule="nonzero"/><path d="m216.25 150.94h-0.016c-0.171-9e-3 -0.301-0.154-0.294-0.325 0.109-2.103-0.187-3.832-0.365-4.866-0.039-0.231-0.073-0.432-0.098-0.599l2e-3 -0.101c0.084-0.447 0.272-0.72 0.559-0.812 0.431-0.141 0.845 0.235 0.892 0.279 0.123 0.117 0.128 0.313 9e-3 0.438-0.116 0.122-0.31 0.127-0.436 0.01l-0.275-0.138c-0.016 4e-3 -0.082 0.07-0.129 0.289 0.022 0.151 0.052 0.329 0.086 0.53 0.182 1.059 0.485 2.83 0.375 5.001-9e-3 0.166-0.146 0.294-0.31 0.294z" fill="#f58460" fill-rule="nonzero"/><path d="m215.11 143.28-0.131-0.029c-0.155-0.073-0.221-0.257-0.149-0.412 0.191-0.406 0.443-0.622 0.752-0.64 0.522-0.038 0.893 0.541 0.933 0.607 0.09 0.144 0.048 0.334-0.097 0.425-0.143 0.093-0.335 0.049-0.427-0.096-0.095-0.149-0.274-0.319-0.366-0.319h-5e-3c-0.037 3e-3 -0.126 0.065-0.229 0.285-0.053 0.112-0.164 0.179-0.281 0.179z" fill="#f58460" fill-rule="nonzero"/><path d="m214.37 141.5-0.131-0.029c-0.155-0.072-0.221-0.257-0.149-0.411 0.209-0.446 0.483-0.683 0.818-0.703 0.569-0.041 0.975 0.598 1.021 0.67 0.09 0.144 0.047 0.334-0.098 0.426-0.143 0.089-0.336 0.046-0.427-0.097-0.1-0.158-0.317-0.382-0.451-0.382l-8e-3 1e-3c-0.065 4e-3 -0.177 0.098-0.295 0.347-0.052 0.112-0.164 0.178-0.28 0.178z" fill="#f58460" fill-rule="nonzero"/><path d="m213.72 139.67-0.131-0.029c-0.155-0.072-0.222-0.257-0.15-0.411 0.209-0.446 0.484-0.683 0.819-0.703 0.541-0.044 0.975 0.598 1.02 0.669 0.091 0.144 0.048 0.335-0.096 0.426-0.143 0.092-0.334 0.047-0.427-0.096-0.101-0.158-0.318-0.382-0.452-0.382l-8e-3 1e-3c-0.066 4e-3 -0.178 0.098-0.295 0.347-0.053 0.112-0.164 0.178-0.28 0.178z" fill="#f58460" fill-rule="nonzero"/><path d="m159.77 115.88c1.17-1.027 2.959-1.486 4.528-1.344 0.748 0.067 0.86 1.216 0.151 1.367-0.673 0.142-1.339 0.269-1.982 0.513-0.612 0.232-1.148 0.597-1.737 0.875-0.772 0.366-1.65-0.804-0.96-1.411z" fill="#2c3e61" fill-rule="nonzero"/><path d="m169.13 114.55c1.305-1.12 4.012-0.312 4.972 0.92 0.333 0.428-0.124 0.985-0.6 0.916-0.721-0.106-1.318-0.555-2.024-0.728-0.674-0.166-1.277-0.023-1.953 0.013-0.655 0.036-0.844-0.735-0.395-1.121z" fill="#2c3e61" fill-rule="nonzero"/><path d="m163.54 118.08c0.298-0.082 0.726 0.046 0.859 0.35 0.182 0.416 0.4 1.024 0.213 1.468-0.119 0.282-0.299 0.499-0.625 0.538-0.307 0.037-0.579-0.099-0.748-0.358-0.22-0.338-0.232-0.865-0.256-1.265-0.02-0.33 0.25-0.648 0.557-0.733z" fill="#030404" fill-rule="nonzero"/><path d="m170.99 117.78c0.143-0.247 0.436-0.385 0.717-0.343 0.305 0.046 0.485 0.237 0.598 0.515 0.137 0.339 0.17 0.889 0.065 1.24-0.195 0.646-1.005 0.699-1.367 0.178-0.299-0.431-0.271-1.146-0.013-1.59z" fill="#030404" fill-rule="nonzero"/><path d="m161.38 127.36c1.995 2.11 4.505 2.561 7.235 1.754 0.231-0.068 0.397 0.293 0.168 0.398-2.702 1.25-5.837 0.417-7.764-1.791-0.214-0.245 0.133-0.601 0.361-0.361z" fill="#f37652" fill-rule="nonzero"/><path d="m169.29 121.21c-0.407-1.321-0.65-2.675-0.71-4.056-0.012-0.261 0.364-0.245 0.396 0 0.151 1.16 0.336 2.307 0.654 3.434 0.333 1.181 0.93 2.223 1.348 3.362 0.374 1.018-0.404 1.668-1.226 2.209-0.315 0.207-0.573-0.278-0.289-0.494 0.449-0.342 1.05-0.923 0.987-1.563-0.023-0.234-0.336-0.707-0.443-0.954-0.272-0.633-0.513-1.28-0.717-1.938z" fill="#f37652" fill-rule="nonzero"/><path d="m168.16 124.77c0.218-8e-3 0.427 0.025 0.644-0.018 0.182-0.035 0.282-0.073 0.453 6e-3l0.081 0.2c-0.155 0.455-0.94 0.433-1.3 0.264-0.231-0.108-0.1-0.444 0.122-0.452z" fill="#f37652" fill-rule="nonzero"/><path d="m152.65 123.41c-0.485-0.079-0.886 0.4-1.098 0.709-0.264 0.385-0.237 0.977 0.042 1.363 0.705 0.974 2.583 0.092 2.493-0.889-0.06-0.639-0.644-1.413-1.437-1.183z" fill="#c0cfeb" fill-rule="nonzero"/><path d="m147.36 116.28c-0.154 0-0.287-0.114-0.307-0.271-0.042-0.322-0.076-0.635-0.11-0.943-0.148-1.358-0.276-2.532-0.929-3.768-0.725-1.37-0.799-2.612-0.247-4.156 0.643-1.801 2.922-5.469 5.521-4.66 0.163 0.051 0.254 0.225 0.201 0.388-0.05 0.162-0.223 0.253-0.387 0.202-2.052-0.627-4.105 2.471-4.753 4.279-0.493 1.381-0.431 2.442 0.212 3.658 0.708 1.34 0.849 2.627 0.998 3.99 0.033 0.303 0.067 0.613 0.108 0.932 0.022 0.169-0.099 0.324-0.269 0.346l-0.038 3e-3z" fill="#3a5081" fill-rule="nonzero"/><path d="m153.72 101.78-0.154-0.041c-0.149-0.086-0.199-0.275-0.114-0.423 1.486-2.585 4.761-5.533 7.902-5.906 0.167-0.014 0.323 0.103 0.344 0.272 0.019 0.169-0.102 0.323-0.272 0.343-2.833 0.336-6.006 3.112-7.438 5.599-0.057 0.1-0.161 0.156-0.268 0.156z" fill="#3a5081" fill-rule="nonzero"/><path d="m176.89 106.38c-0.142 0-0.268-0.097-0.302-0.241-0.357-1.563-0.652-2.674-1.476-3.809-1.335-1.834-3.267-2.977-5.747-3.395-3.835-0.649-6.777-0.199-9.257 1.413-0.145 0.089-0.336 0.053-0.429-0.091-0.093-0.143-0.053-0.334 0.091-0.428 2.619-1.702 5.702-2.176 9.699-1.505 2.645 0.447 4.711 1.672 6.143 3.642 0.961 1.323 1.275 2.702 1.58 4.036 0.038 0.166-0.066 0.332-0.233 0.37l-0.069 8e-3z" fill="#3a5081" fill-rule="nonzero"/><path d="m140.92 144.2-0.053-5e-3c-0.168-0.028-0.281-0.188-0.254-0.357 0.258-1.515 0.95-2.639 1.619-3.725 0.402-0.654 0.818-1.328 1.147-2.096 0.487-1.136 0.46-2.325 0.433-3.585-0.016-0.728-0.032-1.48 0.059-2.225 0.222-1.825 1.411-3.47 2.459-4.922 0.407-0.562 0.79-1.093 1.071-1.576 0.087-0.149 0.278-0.197 0.425-0.112 0.147 0.087 0.197 0.277 0.111 0.424-0.298 0.509-0.69 1.052-1.104 1.627-1.005 1.391-2.144 2.968-2.347 4.633-0.086 0.701-0.069 1.431-0.055 2.137 0.028 1.271 0.056 2.583-0.484 3.843-0.345 0.809-0.774 1.504-1.188 2.176-0.667 1.084-1.297 2.107-1.534 3.505-0.026 0.151-0.158 0.258-0.305 0.258z" fill="#3a5081" fill-rule="nonzero"/><path d="m150.2 139.75h-0.011c-0.171-6e-3 -0.305-0.15-0.299-0.321 0.031-0.857 0.494-1.462 0.942-2.047l0.199-0.261c0.648-0.871 1.08-1.837 1.247-2.792 0.211-1.21 0.277-2.554 0.342-3.854 0.03-0.637 0.062-1.267 0.109-1.874 0.013-0.17 0.141-0.3 0.333-0.284 0.17 0.014 0.298 0.162 0.284 0.333-0.047 0.6-0.077 1.225-0.109 1.855-0.065 1.319-0.131 2.682-0.35 3.931-0.183 1.05-0.654 2.106-1.36 3.054l-0.204 0.269c-0.424 0.554-0.79 1.033-0.814 1.692-6e-3 0.167-0.143 0.299-0.309 0.299z" fill="#3a5081" fill-rule="nonzero"/><path d="m176.81 147.19c-0.143 0-0.271-0.098-0.302-0.242-0.375-1.682-1.687-2.116-3.078-2.576-1.251-0.414-2.545-0.843-3.208-2.184-1.287-2.599 0.021-5.746 2.027-7.288 0.133-0.106 0.33-0.079 0.434 0.057 0.105 0.135 0.079 0.33-0.057 0.433-1.77 1.36-2.979 4.24-1.849 6.523 0.549 1.11 1.666 1.479 2.847 1.871 1.424 0.47 3.037 1.005 3.487 3.029 0.037 0.167-0.067 0.332-0.234 0.369l-0.067 8e-3z" fill="#3a5081" fill-rule="nonzero"/><path d="m177.2 144.74-0.09-0.014c-0.165-0.05-0.256-0.222-0.206-0.386 0.212-0.697-1e-3 -1.501-0.227-2.351-0.153-0.578-0.311-1.176-0.326-1.748-0.028-1.121 0.231-2.141 0.814-3.208 0.155-0.284 0.376-0.631 0.625-1.017 0.816-1.272 2.051-3.196 1.511-4.255-0.078-0.152-0.018-0.339 0.135-0.416 0.15-0.078 0.338-0.018 0.416 0.135 0.702 1.375-0.595 3.396-1.542 4.871-0.239 0.37-0.453 0.704-0.602 0.979-0.537 0.981-0.764 1.874-0.738 2.895 0.013 0.499 0.155 1.036 0.305 1.606 0.239 0.896 0.484 1.824 0.22 2.689-0.039 0.134-0.162 0.22-0.295 0.22z" fill="#3a5081" fill-rule="nonzero"/><path d="m176.12 135.15-0.073-9e-3c-0.166-0.041-0.267-0.208-0.227-0.374 0.114-0.467 0.123-0.925 0.133-1.41 0.011-0.611 0.023-1.243 0.258-1.898 0.094-0.262 0.191-0.518 0.287-0.77 0.3-0.787 0.583-1.53 0.718-2.378 0.266-1.665 0.331-4.444-0.351-5.411-0.099-0.14-0.066-0.333 0.074-0.432 0.141-0.097 0.331-0.064 0.431 0.075 0.899 1.271 0.691 4.393 0.458 5.866-0.145 0.911-0.44 1.683-0.751 2.501-0.095 0.248-0.191 0.499-0.284 0.758-0.2 0.559-0.211 1.114-0.223 1.701-9e-3 0.498-0.019 1.012-0.149 1.545-0.035 0.141-0.161 0.236-0.301 0.236z" fill="#3a5081" fill-rule="nonzero"/><path d="m139.7 149.88-0.153-0.04c-0.148-0.085-0.2-0.274-0.116-0.422 1.07-1.88 2.162-2.983 4.029-4.068 1.313-0.763 2.822-2.329 2.752-4.231-5e-3 -0.171 0.128-0.315 0.299-0.322h0.01c0.166 0 0.304 0.131 0.311 0.299 0.079 2.177-1.6 3.941-3.062 4.789-1.761 1.024-2.791 2.065-3.8 3.839-0.058 0.1-0.162 0.156-0.27 0.156z" fill="#3a5081" fill-rule="nonzero"/><path d="m155.13 104.31c-0.165 0-0.302-0.13-0.309-0.297-0.038-0.893 0.601-2.741 1.607-3.021 0.162-0.05 0.334 0.05 0.381 0.214 0.045 0.166-0.05 0.335-0.215 0.381-0.603 0.168-1.185 1.682-1.154 2.401 6e-3 0.171-0.126 0.314-0.297 0.322h-0.013z" fill="#3a5081" fill-rule="nonzero"/><path d="m155.85 105.39-0.043-3e-3c-0.17-0.024-0.287-0.18-0.263-0.349 0.164-1.161 1.989-1.627 2.892-1.544 0.17 0.016 0.295 0.168 0.279 0.338-0.016 0.171-0.171 0.295-0.337 0.279-0.687-0.068-2.125 0.327-2.221 1.013-0.022 0.155-0.154 0.266-0.307 0.266z" fill="#3a5081" fill-rule="nonzero"/><path d="m150.16 106.84-0.079-0.011c-0.166-0.042-0.264-0.212-0.22-0.377 0.198-0.751 0.796-1.416 1.64-1.826 0.887-0.432 1.876-0.49 2.642-0.158 0.157 0.069 0.229 0.25 0.161 0.407-0.068 0.159-0.251 0.23-0.407 0.162-0.602-0.262-1.398-0.207-2.126 0.146-0.671 0.325-1.162 0.858-1.312 1.427-0.037 0.138-0.162 0.23-0.299 0.23z" fill="#3a5081" fill-rule="nonzero"/><path d="m150.35 109.83-0.034-1e-3c-0.17-0.019-0.292-0.172-0.274-0.342 0.12-1.086 0.884-2.349 1.818-3.004 0.789-0.553 1.91-1.199 2.864-1.131 0.17 0.012 0.299 0.16 0.286 0.331-0.011 0.17-0.14 0.321-0.331 0.286-0.571-0.053-1.479 0.33-2.464 1.022-0.788 0.551-1.458 1.654-1.557 2.564-0.018 0.158-0.152 0.275-0.308 0.275z" fill="#3a5081" fill-rule="nonzero"/><path d="m154.66 109-0.105-0.018c-0.161-0.059-0.244-0.235-0.185-0.397 0.281-0.78 0.607-1.405 1.276-1.918 0.134-0.105 0.33-0.079 0.434 0.057s0.079 0.33-0.058 0.434c-0.551 0.424-0.817 0.941-1.071 1.638-0.046 0.126-0.163 0.204-0.291 0.204z" fill="#3a5081" fill-rule="nonzero"/><path d="m175.88 115.21h-0.01c-0.171-6e-3 -0.305-0.15-0.3-0.321 0.099-2.882-0.377-4.806-1.413-5.721-0.871-0.772-2.94-1.636-4.188-1.563-0.181 0.026-0.319-0.119-0.328-0.289-0.011-0.171 0.119-0.318 0.289-0.328 1.408-0.099 3.656 0.849 4.636 1.715 1.182 1.044 1.728 3.132 1.624 6.208-6e-3 0.167-0.144 0.299-0.31 0.299z" fill="#3a5081" fill-rule="nonzero"/><path d="m169.08 160.68c-0.261 0.512-1.122 0.222-0.967-0.349 0.832-3.008 2.176-5.775 2.389-8.928 0.184-2.883-0.609-5.089-2.07-7.313 0.455 0.174 0.9 0.348 1.354 0.522 0.233 0.087 0.465 0.174 0.707 0.271 2.64 4.508 0.677 11.685-1.413 15.797z" fill="#666767" fill-rule="nonzero"/><path d="m170.61 160.56c-0.32-1.306-1.797-2.519-3.109-2.284-1.27-0.1-2.523 0.806-2.823 2.111-0.213 0.925 0.06 1.823 0.612 2.509 0.265 0.517 0.727 0.894 1.406 1.017 0.234 0.088 0.475 0.156 0.729 0.186 1.728 0.207 3.613-1.789 3.185-3.539z" fill="#4d4e4e" fill-rule="nonzero"/><path d="m159.68 157.72c-2.799-2.312-7.058-3.045-9.238 0.473-4.423 7.144 4.712 15.165 11.443 14.896 0.706-0.028 0.692-1.189-8e-3 -1.243-5.313-0.405-12.254-4.932-10.691-11.251 1.596-6.451 8.16-2.147 9.867 1.505 1.185 2.534 1.385 5.383 1.697 8.124 0.113 1.001 1.611 0.771 1.538-0.218-0.319-4.348-1.028-9.329-4.608-12.286z" fill="#666767" fill-rule="nonzero"/><path d="m162.23 169.02c-0.336 0.108-0.423 0.569-0.221 0.828 0.193 0.247 0.444 0.329 0.673 0.53 0.24 0.21 0.322 0.511 0.54 0.737 0.337 0.351 1.021 0.277 1.082-0.288 0.107-0.992-1.09-2.125-2.074-1.807z" fill="#e4e4e4" fill-rule="nonzero"/><path d="m162.89 172.1c-0.178-0.264-0.395-0.279-0.641-0.437-0.243-0.155-0.346-0.4-0.485-0.641-0.207-0.358-0.842-0.481-0.997 0.011-0.318 1.003 0.986 2.753 2.03 1.858 0.245-0.208 0.269-0.529 0.093-0.791z" fill="#e4e4e4" fill-rule="nonzero"/><path d="m166.73 160.41c-0.362 0.437-0.375 1.153 0.122 1.572 0.368 0.312 0.916 0.399 1.353 0.181 0.483-0.242 0.654-0.767 0.598-1.279-0.117-1.09-1.601-1.385-2.073-0.474z" fill="#f1f2f3" fill-rule="nonzero"/><path d="m152.85 141.29-0.156 0.125c-0.354 0.181-0.703 0.373-0.973 0.671-0.278 0.308-0.477 0.613-0.817 0.864h-1e-3c-1.945 4.383-1.934 10.537 1.071 13.866 0.514 0.571 1.352-0.273 0.841-0.841-3.635-4.046-1.8-10.197 0.035-14.685z" fill="#666767" fill-rule="nonzero"/><path d="m208.39 282.23h-68.233c-2.665 0-4.827-2.162-4.827-4.828v-9.411c0-2.666 2.162-4.827 4.827-4.827h68.233c2.666 0 4.827 2.161 4.827 4.827v9.411c0 2.666-2.161 4.828-4.827 4.828z" fill="#bf262d" fill-rule="nonzero"/><path d="m168.64 268.92c-0.078-0.228-0.049-0.485 0.09-0.682 0.313-0.441 1.012-1.158 2.28-1.204 1.633 0.145 2.363 2.184 2.119 2.57-0.486 1.152-1.007 1.009-1.181 1.845-0.157 0.758 2.016 2.931 3.211 3.534 0.192 0.097 0.416 0.105 0.61 0.012 0.476-0.228 0.873-0.524 1.132-0.742 0.238-0.201 0.564-0.267 0.86-0.173 0.548 0.173 1.405 0.564 2.026 1.409 0.102 0.139 0.161 0.319 0.152 0.491-0.058 1.113-0.884 1.851-1.364 2.188-0.215 0.151-0.474 0.21-0.734 0.172-1.442-0.208-6.481-1.496-9.201-9.42z" fill="#fff" fill-rule="nonzero"/><clipPath id="a"><path d="m258.9 355.56c-0.845 0-1.666-0.126-2.353-0.483-1.263-0.654-0.298-1.586 0.769-2.312 0.052 0.014 0.107 0.026 0.16 0.037 0.125 0.023 0.253 0.035 0.387 0.035 1.011 0 2.365-0.676 4.963-2.02 0.794-0.411 1.647-0.854 2.555-1.302 0.048-0.012 0.097-0.023 0.145-0.034 1.477-0.349 3.145-0.779 4.755-0.779 0.899 0 1.78 0.135 2.599 0.492 1.291 0.565 1.779 1.249 1.48 2.622-0.28 1.285-1.066 2.117-2.372 2.4-3.157 0.684-6.489 0.202-9.686 0.886-1 0.214-2.227 0.459-3.402 0.458z"/></clipPath><g clip-path="url(#a)"><rect x="255.28" y="348.7" width="19.375" height="6.859" fill="#b5b5b6" fill-rule="nonzero"/></g><path d="m281.17 348.7c-1.202 0-2.387-0.061-3.526-0.219-1.185-0.164-2.95-0.868-3.107-2.271-0.015-0.134-3e-3 -0.307 0.033-0.487 0.177 0.764 0.564 1.198 0.921 1.443 0.366 0.251 0.865 0.351 1.658 0.351 0.777 0 1.835-0.095 3.323-0.238 1.842-0.176 4.009-0.383 6.094-0.383 0.815 0 1.618 0.031 2.384 0.109 0.065 6e-3 0.13 9e-3 0.193 9e-3 0.58 0 1.116-0.238 1.494-0.663 0.422-0.475 0.586-1.103 0.449-1.725-6e-3 -0.025-0.011-0.051-0.016-0.076 0.786 0.078 1.542 0.307 1.797 0.948 0.885 2.22-2.548 2.643-3.845 2.735-2.504 0.179-5.219 0.467-7.852 0.467z" fill="#b5b5b6" fill-rule="nonzero"/><path d="m289.37 216.42c1.234-0.078 2.15-0.64 3.331-1.014 2.275-0.719 5.669-0.297 7.509 1.219 1.919 1.58 3.443 3.944 4.595 6.101 0.769 1.442 1.745 2.798 2.498 4.226 0.357 0.677 0.525 1.606 1 2.166 0.838-1.404 1.588-2.761 2.852-3.843 1.485-1.27 2.963-1.703 4.726-2.318-0.699-0.835-1.574-1.581-2.099-2.552-0.75-1.386-1.154-2.952-1.787-4.395-2.494-5.681-9.098-7.816-14.898-6.913-1.888 0.294-7.382 1.909-8.956 0.149 0 1.43-0.277 2.963 0.279 4.305 0.401 0.971 1.094 1.721 0.95 2.869z" fill="#bfe2ea" fill-rule="nonzero"/><path d="m290.25 336.06c-0.834-0.909-2.604-0.191-3.51 0.275l-0.188 0.097c-1.138 0.589-0.456 1.275-0.429 2.281 0.044 1.655-2.719 2.279-3.923 2.579-1.768 0.441-3.604 0.687-5.425 0.761-1.187 0.048-2.169 0.976-2.281 2.16-0.169 1.766 0.446 2.582 0.992 2.956 0.366 0.251 0.865 0.351 1.658 0.351 0.777 0 1.835-0.095 3.323-0.238 2.562-0.245 5.752-0.55 8.478-0.274 0.654 0.059 1.267-0.182 1.687-0.654 0.422-0.475 0.586-1.103 0.449-1.725-0.167-0.76-0.173-1.594-0.178-2.475-2e-3 -0.341-5e-3 -0.682-0.016-1.016-5e-3 -0.159-0.017-0.327-0.031-0.499-0.022-0.316-0.047-0.643-0.012-0.865 0.092-0.599 0.367-0.989 0.251-1.593-0.1-0.515-0.357-0.99-0.505-1.49-0.078-0.266-0.196-0.473-0.34-0.631z" fill="#4d2c20" fill-rule="nonzero"/><path d="m273.3 343.14c-2.446-3.372-3.042-8.745-3.049-8.798l-0.119-1.125-6.579 1.111-0.234 0.514c-0.255 0.558-0.255 1.134-0.255 1.554v0.354l0.212 0.283c0.383 0.512 0.859 1.478 1.014 3.206-1.615 3.065-5.694 5.043-7.908 6.118-1.3 0.629-1.943 2.138-1.493 3.509 0.561 1.723 1.43 2.708 2.582 2.932 0.125 0.023 0.253 0.035 0.387 0.035 1.011 0 2.365-0.676 4.963-2.02 2.549-1.321 5.722-2.962 9.288-4.105 0.717-0.229 1.282-0.789 1.516-1.498 0.232-0.71 0.114-1.464-0.325-2.07z" fill="#4d2c20" fill-rule="nonzero"/><path d="m263.88 338.33c-2e-3 -0.045-1e-3 -0.09 4e-3 -0.134 0.013 0.038 0.026 0.076 0.039 0.115-0.015 6e-3 -0.028 0.012-0.043 0.019z" fill="#b2b2b2" fill-rule="nonzero"/><path d="m264.07 338.84c-0.109-0.152-0.182-0.33-0.194-0.509 0.015-7e-3 0.028-0.013 0.043-0.019 0.054 0.162 0.104 0.338 0.151 0.528zm6.625-2.049c-0.048-0.208-0.091-0.408-0.13-0.597 0.101 0.163 0.122 0.385 0.13 0.597z" fill="#9e9e9f" fill-rule="nonzero"/><path d="m266.59 339.39c-0.08 0-0.161-2e-3 -0.242-4e-3 -0.079-2e-3 -0.16-4e-3 -0.242-4e-3h-0.187c-0.448 0-0.916-0.011-1.342-0.151-0.188-0.062-0.372-0.207-0.503-0.391-0.047-0.19-0.097-0.366-0.151-0.528-0.013-0.039-0.026-0.077-0.039-0.115 0.013-0.108 0.051-0.215 0.121-0.313 0.194-0.207 0.836-0.14 1.106-0.182 0.807-0.127 1.58-0.403 2.329-0.726 0.512-0.219 1.047-0.403 1.575-0.588 0.287-0.102 0.768-0.415 1.145-0.415 0.114 0 0.219 0.029 0.306 0.101 0.041 0.035 0.075 0.075 0.103 0.12 0.039 0.189 0.082 0.389 0.13 0.597 5e-3 0.133 5e-3 0.261 0.017 0.37 0.048 0.432 0.208 0.814 0.254 1.252 0.018 0.182 0.083 0.291-0.065 0.402-0.092 0.07-0.265 0.089-0.457 0.089-0.123 0-0.254-8e-3 -0.376-0.016-0.123-7e-3 -0.238-0.015-0.329-0.015-0.032 0-0.06 1e-3 -0.086 3e-3 -0.531 0.048-0.987 0.047-1.508 0.189-0.367 0.101-0.736 0.22-1.107 0.289-0.152 0.028-0.302 0.036-0.452 0.036z" fill="#351e14" fill-rule="nonzero"/><path d="m290.98 339.2c0.012-0.038 0.023-0.077 0.034-0.116-0.01 0.04-0.021 0.079-0.034 0.116zm-4.875-0.241c-0.023-0.322-0.067-0.631-0.097-0.944l8e-3 -0.01c0.05 0.216 0.098 0.448 0.105 0.701 2e-3 0.087-3e-3 0.171-0.016 0.253z" fill="#9e9e9f" fill-rule="nonzero"/><path d="m289.11 340.01c-0.502 0-1.029-0.086-1.485-0.244-0.379-0.132-0.764-0.272-1.139-0.413-0.22-0.083-0.362-0.156-0.378-0.389v-2e-3c0.013-0.082 0.018-0.166 0.016-0.253-7e-3 -0.253-0.055-0.485-0.105-0.701l0.087-0.109 0.212-9e-3 0.133-0.041 0.129-0.016c0.1 0.015 0.211 0.082 0.308 0.113 0.209 0.068 0.423 0.116 0.639 0.146 0.256 0.037 0.515 0.051 0.774 0.051 0.177 0 0.355-7e-3 0.532-0.017 0.171-0.01 0.343-0.013 0.514-0.013 0.215 0 0.429 5e-3 0.642 9e-3h0.029c0.084 0 0.169-5e-3 0.255-0.011 0.085-6e-3 0.171-0.011 0.256-0.011 0.109 0 0.218 9e-3 0.323 0.04 0.271 0.079 0.239 0.271 0.226 0.508-8e-3 0.15-0.025 0.299-0.061 0.439-0.011 0.039-0.022 0.078-0.034 0.116-0.081 0.237-0.224 0.438-0.476 0.554-0.31 0.142-0.612 0.191-0.95 0.229-0.145 0.016-0.295 0.024-0.447 0.024z" fill="#351e14" fill-rule="nonzero"/><path d="m265.23 263.97s-12.557 35.052-10.813 44.294c1.071 5.679 2.862 11.249 4.593 16.754 0.845 2.69 1.717 5.372 2.607 8.048 0.325 0.98 0.655 1.96 0.988 2.939 0.201 0.596 0.409 1.924 0.874 2.311 0.218 0.181 0.51 0.219 0.785 0.228 1.398 0.045 2.749 0.11 3.987-0.605 1.146-0.664 3.101-1.107 3.005-2.739-0.07-1.183-0.272-2.375-0.413-3.552-0.37-3.085-0.768-6.168-1.206-9.246-0.42-2.942-0.875-5.88-1.413-8.803-0.24-1.3-0.494-2.597-0.784-3.887-0.129-0.58-0.266-1.158-0.414-1.734-0.084-0.327-0.482-1.144-0.402-1.457 2.616-10.289 6.653-12.251 11.641-20.404 0 16.741 4.577 41.504 7.716 51.967 2.267 1.569 5.232 0.349 5.232 0.349s2.267-20.839-1.047-35.052c1.919-15.084 8.633-16.523 5.58-40.632-24.064-4.359-30.516 1.221-30.516 1.221z" fill="#506496" fill-rule="nonzero"/><path d="m295.37 264.18c-0.45 1.277-3.371 1.556-4.509 1.706-3.103 0.406-6.091 1.134-9.269 1.131-3.088-3e-3 -6.166-0.01-9.244-0.163-2.992-0.15-6.101 0.142-8.512-1.172-2.08-6.14-3.141-12.022-2.836-18.673 0.228-4.984-0.758-11.19 1.001-15.697 0.219-0.564-1.76-1.366-2.103-1.606-0.908-0.635-1.556-1.598-2.294-2.406-3.291-3.6-7.494-6.754-9.775-11.195-1.167-2.274-2.805-4.52-3.8-6.849-0.706-1.654-0.743-4.211 0.277-5.738 1.607-2.407 4.5-3.083 7.009-4.065 2.607-1.021 5.339-1.944 7.991-2.804 4.422-1.437 9.462-2.085 13.54-3.045 1.944 2.45 2.923 4.353 3.337 7.341-0.881 1.693-5.255 3.279-7.091 4.023-3.293 1.334-6.6 3.299-10.263 3.318 4.182 0.186 8.586 5.351 10.346 8.343-0.189-0.322 7.301-1.156 7.802-1.27 1.006-0.227 1.714-0.652 2.8-0.693 1.176-0.044 2.351 0.165 3.526 0.166 1.992 3e-3 3.824-0.251 5.768 0.139 2.877 0.578 5.734 1.269 7.504 3.777 0.787 1.114 1.526 2.339 1.888 3.652 0.399 1.447 0.853 1.912 2.077 2.89 0.952 0.761 1.352 1.78 2.113 2.689 1.756 2.093 3.147 4.497 4.788 6.714 2.113 2.858 3.581 5.751 4.119 9.218 0.28 1.805 0.041 2.234-0.887 3.914-1.065 1.931-2.023 3.712-3.651 5.256-2.304 2.185-5.215 3.6-8.146 4.74-1.778 0.694-1.989 0.802-2.459 2.635-0.319 1.246-0.619 2.51-1.047 3.724z" fill="#a1716e" fill-rule="nonzero"/><path d="m266.77 188.17c0.045 0.144 0.094 0.282 0.123 0.399 0.22 0.923-0.01 2.109-0.187 3.024-0.166 0.859-0.397 1.7-0.612 2.548-0.542 2.144-0.812 4.656-0.09 6.757 1.293 3.768 2.124 6.275 5.903 8.226 3.036 1.567 7.544 3.584 10.266 0.277 0.714-0.866 1.446-2.147 1.615-3.269 0.166-1.114-0.137-2.304-0.023-3.45 0.188-1.912 1.034-3.601 1.406-5.489 0.533-2.71-0.388-5.859-2.17-7.964-2.393-2.826-6.645-2.939-10.072-2.812-0.846 0.031-1.692 0.076-2.531 0.185-0.428 0.056-0.809 0.128-1.247 0.113-0.406-0.015-0.81-0.048-1.21 0.047-0.347 0.082-0.992 0.209-1.199 0.554-0.14 0.237-0.063 0.559 0.028 0.854z" fill="#f9b09d" fill-rule="nonzero"/><path d="m271.34 208.22c-0.746 1.633-0.698 2.378-0.221 3.968-0.914 0.904-1.782 1.773-1.829 3.108-0.061 1.778 2.334 2.648 3.861 2.969 4.105 0.86 8.84 0.773 12.851-0.218 1.809-0.446 3.485-1.038 4.476-2.653 0.709-1.158 1.365-2.551 0.614-3.765-0.812-1.313-2.673-0.949-2.938-2.537-0.128-0.776 0.172-1.517-0.291-2.207-0.508-0.76-1.565-0.937-2.404-0.92-2.328 0.048-5.016 1.282-7.278 1.816-1.284 0.304-2.502 0.439-3.849 0.314-0.668-0.063-2.637-0.214-2.992 0.125z" fill="#bfe2ea" fill-rule="nonzero"/><path d="m268.34 187.76c-2.102 0.184-3.573-1.659-2.881-3.792 0.479-1.475 1.961-2.301 3.215-2.997 1.754-0.972 3.055-2.925 5.181-3.14 0.945-0.096 1.924 0.106 2.87 8e-3 1.275-0.132 2.473-0.782 3.734-1.03 1.865-0.367 4.091-0.09 5.366 1.399 0.345 0.402 0.537 0.916 0.868 1.317 0.533 0.647 1.383 1.034 2.103 1.478 1.19 0.734 2.488 1.536 2.925 2.941 0.272 0.876 0.176 1.827 0.309 2.729 0.153 1.031 0.642 1.867 0.987 2.825 0.669 1.856 0.452 3.326-0.07 5.186-0.935 3.338-0.107 7.76-2.834 10.346-1.427 1.356-3.65 0.805-5.089-0.228-0.925-0.666-1.467-1.829-2.415-2.359-1.223-0.685-2.056-0.747-2.339-2.381-0.216-1.247 0.144-2.452-0.265-3.637-0.224-0.647-0.612-1.224-0.718-1.904-0.117-0.75 0.031-1.495-0.183-2.237-0.437-1.504-1.869-1.86-2.837-2.933-1.132-1.255-1.73-2.308-3.508-2.602-1.267-0.209-1.927 0.177-3.005 0.661-0.407 0.183-0.781 0.342-1.414 0.35z" fill="#7e5349" fill-rule="nonzero"/><path d="m278.82 285.72-0.163-0.081 0.037-0.289c0.088-0.068 8.844-6.949 9.698-15.563 0.01-0.113 0.117-0.202 0.225-0.185 0.113 0.01 0.197 0.112 0.185 0.226-0.871 8.793-9.766 15.779-9.856 15.848l-0.126 0.044z" fill="#394876" fill-rule="nonzero"/><path d="m269.28 238.74-0.145-0.042c-4.355-2.845-6.417-6.727-6.502-6.891-0.069-0.129-0.018-0.29 0.112-0.358 0.128-0.067 0.291-0.018 0.358 0.113 0.021 0.038 2.089 3.924 6.323 6.691 0.123 0.079 0.157 0.245 0.077 0.367l-0.223 0.12z" fill="#73514f" fill-rule="nonzero"/><path d="m297.11 257.56-0.08-0.012c-0.139-0.045-0.218-0.194-0.174-0.334 1.802-5.733 1.579-29.998 1.578-30.241-2e-3 -0.15 0.102-0.292 0.265-0.27 0.146 0 0.265 0.117 0.266 0.263 0.01 1.003 0.225 24.595-1.601 30.407-0.036 0.113-0.14 0.187-0.254 0.187z" fill="#73514f" fill-rule="nonzero"/><path d="m267.94 202.09c0.239-0.068 0.477-0.139 0.716-0.205 1.771-0.491 3.787-1.108 5.695-0.722 2.075 0.483 7.09 3.024 7.44 1.891 0.281-1.07-3.787-2.493-3.321-3.525 0.487-0.828 10.121-2.468 9.58-3.843-0.465-1.211-7.582 1.708-7.869 0.88-0.142-0.606 7.92-3.643 7.211-4.941-0.568-1.195-7.16 2.973-7.56 2.242-0.232-0.585 5.256-3.797 4.43-4.704-0.857-1.053-6.765 4.303-7.552 3.489-0.294-0.358 3.308-3.288 2.46-4.27-0.372-0.507-5.315 4.145-5.899 4.442-1.57 1.137-3.287 2.212-5.222 2.866-1.287 0.457-4.581 0.033-5.277 1.247-0.571 1.006 0.094 2.636-0.208 3.767-0.157 0.603-1.292 2.057-0.715 2.674 0.273 0.291 1.077 0.071 1.488-0.017 1.571-0.332 3.094-0.829 4.603-1.271z" fill="#f79b81" fill-rule="nonzero"/><path d="m254.74 208.82c-2.4 0-4.805-0.136-4.957-0.145-0.146-9e-3 -0.258-0.134-0.25-0.28 9e-3 -0.146 0.122-0.262 0.282-0.25 0.056 2e-3 5.609 0.317 8.274 1e-3 0.146-0.035 0.278 0.087 0.295 0.233 0.017 0.145-0.087 0.278-0.233 0.295-0.926 0.109-2.168 0.146-3.411 0.146z" fill="#73514f" fill-rule="nonzero"/><path d="m263.85 307.36c-1.179 0-1.972-0.366-2.022-0.39-0.103-0.049-0.145-0.171-0.097-0.275 0.048-0.103 0.173-0.142 0.274-0.097 0.017 9e-3 1.698 0.776 3.763-7e-3 0.109-0.042 0.225 0.015 0.265 0.12 0.041 0.106-0.012 0.225-0.119 0.266-0.757 0.288-1.462 0.383-2.064 0.383z" fill="#394876" fill-rule="nonzero"/><path d="m267.78 193.41c-0.14 0.415-0.251 0.864 0.025 1.242 0.19 0.261 0.639 0.345 0.81 0 0.183-0.367 0.116-0.71 0.166-1.107 0.076-0.597-0.827-0.649-1.001-0.135z" fill="#32201c" fill-rule="nonzero"/><path d="m285.32 304.91c-0.296 0-0.478-0.02-0.503-0.024-0.113-0.013-0.193-0.117-0.178-0.23 0.013-0.112 0.122-0.208 0.229-0.179 0.022 1e-3 2.049 0.234 4.05-1.016 0.099-0.059 0.224-0.029 0.284 0.066 0.061 0.096 0.031 0.224-0.065 0.283-1.535 0.959-3.053 1.1-3.817 1.1z" fill="#394876" fill-rule="nonzero"/><path d="m264.26 207.05c1.64-0.65 3.238-1.442 4.833-2.088 1.439-0.583 3.591-0.902 3.68-2.774 0.063-1.337-0.609-2.647-1.004-3.891-0.619-1.948-1.828-4.096-4.173-3.695-2.765 0.473-5.617 1.173-8.289 2.041-2.624 0.852-5.326 1.765-7.908 2.772 4.242 2.63 8.33 5.523 12.861 7.635z" fill="#a1716e" fill-rule="nonzero"/><path d="m278.42 213.81c-3.605 0-6.527-1.136-6.579-1.157-0.136-0.054-0.202-0.209-0.149-0.345 0.055-0.138 0.211-0.202 0.346-0.15 0.092 0.037 9.167 3.562 14.856-2.064 0.104-0.105 0.272-0.104 0.375 1e-3 0.104 0.104 0.103 0.272-2e-3 0.375-2.638 2.612-5.961 3.34-8.847 3.34z" fill="#859ca2" fill-rule="nonzero"/><path d="m289.96 214.78-0.208-0.1c-1.989-2.503-1.77-4.104-1.759-4.17 0.023-0.145 0.142-0.242 0.304-0.222 0.143 0.021 0.243 0.156 0.221 0.301-1e-3 0.013-0.176 1.462 1.65 3.76 0.092 0.115 0.072 0.282-0.043 0.373l-0.165 0.058z" fill="#859ca2" fill-rule="nonzero"/><path d="m252.76 211.45c-0.137 0-0.253-0.104-0.265-0.242-0.013-0.147 0.096-0.275 0.241-0.288 2.121-0.184 5.239-1.626 5.27-1.642 0.132-0.058 0.292-4e-3 0.353 0.129 0.062 0.134 4e-3 0.292-0.129 0.355-0.13 0.059-3.234 1.496-5.447 1.687l-0.023 1e-3z" fill="#73514f" fill-rule="nonzero"/><path d="m276.71 221.93-0.184-0.074c-3.222-3.068-6.474-4.062-6.506-4.072-0.141-0.042-0.221-0.19-0.179-0.33 0.042-0.141 0.191-0.223 0.331-0.179 0.138 0.041 3.406 1.041 6.722 4.197 0.106 0.101 0.11 0.27 8e-3 0.376l-0.192 0.082z" fill="#73514f" fill-rule="nonzero"/><path d="m271.21 190.87c-0.983-1.016-3.153-1.063-4.294-0.307-0.602 0.398-0.443 1.562 0.403 1.486 0.573-0.051 1.12-0.179 1.699-0.164 0.571 0.014 1.101 0.224 1.669 0.247 0.657 0.026 0.953-0.818 0.523-1.262z" fill="#7e5349" fill-rule="nonzero"/><path d="m286.46 346.65h-0.018c-0.146-8e-3 -0.256-0.136-0.248-0.283 6e-3 -0.08 0.143-1.98 1.439-3.084 0.689-0.587 1.561-0.837 2.619-0.732 0.146 0.014 0.253 0.144 0.239 0.291-0.014 0.145-0.12 0.258-0.29 0.238-0.903-0.084-1.647 0.119-2.223 0.608-1.126 0.959-1.251 2.697-1.252 2.715-0.01 0.14-0.126 0.247-0.266 0.247z" fill="#7d4a35" fill-rule="nonzero"/><path d="m276.9 347.24-0.126-0.03c-0.129-0.069-0.177-0.231-0.108-0.361 0.966-1.801-0.164-4.291-0.176-4.317-0.061-0.133-4e-3 -0.291 0.13-0.351 0.133-0.063 0.291-4e-3 0.353 0.13 0.051 0.11 1.252 2.757 0.162 4.791-0.048 0.088-0.14 0.138-0.235 0.138z" fill="#7d4a35" fill-rule="nonzero"/><path d="m269.01 346.97c-0.122 0-0.233-0.083-0.26-0.208-0.95-4.335 2.306-5.437 2.339-5.447 0.134-0.045 0.288 0.031 0.334 0.171 0.045 0.139-0.031 0.288-0.171 0.334-0.115 0.038-2.826 0.976-1.982 4.828 0.031 0.143-0.06 0.285-0.204 0.317l-0.056 5e-3z" fill="#7d4a35" fill-rule="nonzero"/><path d="m259.25 352.03-0.074-0.012c-0.142-0.041-0.222-0.187-0.181-0.329 0.349-1.199 0.284-2.204-0.189-2.987-0.711-1.171-2.125-1.468-2.138-1.471-0.144-0.029-0.237-0.17-0.209-0.312 0.028-0.145 0.165-0.243 0.312-0.209 0.067 0.013 1.651 0.339 2.486 1.713 0.557 0.916 0.641 2.065 0.247 3.416-0.032 0.116-0.139 0.191-0.254 0.191z" fill="#7d4a35" fill-rule="nonzero"/><path d="m290.12 184.49-0.156-0.051c-0.077-0.056-0.205-0.185-0.351-0.335-0.169-0.175-0.379-0.392-0.54-0.509-0.405-0.296-0.83-0.423-1.322-0.571l-0.171-0.052c-0.7-0.212-1.372-0.572-1.999-1.07-0.282-0.224-0.498-0.49-0.707-0.749-0.195-0.242-0.381-0.471-0.611-0.657-1.256-1.017-2.677-1.368-4.468-1.112-0.343 0.05-0.693 0.138-1.033 0.223-0.47 0.118-0.956 0.24-1.457 0.272-0.416 0.027-0.836 1e-3 -1.242-0.023-0.329-0.02-0.664-0.038-1.001-0.032-0.855 0.023-2.421 0.196-3.303 1.1-0.103 0.106-0.272 0.108-0.376 5e-3 -0.106-0.102-0.107-0.27-5e-3 -0.376 1.014-1.039 2.734-1.235 3.67-1.261 0.35-0.012 0.707 0.012 1.047 0.033 0.408 0.025 0.793 0.049 1.176 0.023 0.452-0.028 0.894-0.14 1.362-0.257 0.352-0.088 0.716-0.179 1.086-0.232 1.948-0.284 3.499 0.108 4.878 1.223 0.274 0.222 0.486 0.484 0.691 0.737 0.199 0.247 0.388 0.479 0.623 0.667 0.574 0.456 1.189 0.785 1.823 0.978l0.17 0.051c0.516 0.155 1.003 0.302 1.482 0.651 0.198 0.144 0.417 0.37 0.609 0.568 0.118 0.122 0.219 0.229 0.281 0.275 0.12 0.086 0.146 0.253 0.059 0.371l-0.215 0.11z" fill="#5c3727" fill-rule="nonzero"/><path d="m267.81 186.64-0.203-8e-3c-0.522-0.04-0.939-0.271-1.203-0.669-0.434-0.652-0.362-1.569-0.15-2.209 0.044-0.141 0.195-0.22 0.335-0.169 0.14 0.045 0.216 0.196 0.169 0.335-0.217 0.656-0.182 1.342 0.089 1.75 0.173 0.259 0.442 0.405 0.801 0.433 0.644 0.049 1.322-0.208 2.042-0.481 0.995-0.378 2.027-0.772 3.046-0.344 0.136 0.057 0.2 0.212 0.143 0.348-0.056 0.134-0.215 0.201-0.348 0.142-0.823-0.343-1.713-6e-3 -2.653 0.351-0.678 0.257-1.376 0.521-2.068 0.521z" fill="#5c3727" fill-rule="nonzero"/><path d="m287.14 187.36-0.081-0.013c-0.264-0.084-0.51-0.207-0.747-0.326-0.252-0.125-0.49-0.244-0.745-0.319-0.346-0.102-0.701-0.148-1.076-0.196-0.264-0.034-0.528-0.068-0.791-0.122-1.302-0.266-2.009-0.84-2.866-1.622-0.861-0.787-1.995-1.266-3.033-1.284-0.813-1e-3 -2.158 0.27-2.458 0.819-0.07 0.129-0.234 0.177-0.36 0.107-0.129-0.07-0.177-0.232-0.107-0.36 0.506-0.928 2.363-1.096 2.935-1.097 1.163 0.019 2.427 0.551 3.382 1.423 0.818 0.747 1.442 1.254 2.614 1.493 0.25 0.052 0.501 0.084 0.752 0.116 0.379 0.049 0.771 0.099 1.159 0.213 0.3 0.088 0.57 0.224 0.832 0.354 0.229 0.115 0.446 0.224 0.671 0.295 0.139 0.044 0.217 0.194 0.172 0.334-0.035 0.113-0.141 0.185-0.253 0.185z" fill="#5c3727" fill-rule="nonzero"/><path d="m289.1 202.76-0.131-0.034c-0.128-0.072-0.173-0.234-0.101-0.363 0.353-0.621 0.443-1.709 0.517-2.583 0.017-0.209 0.034-0.409 0.052-0.594 0.1-0.962 0.534-1.661 0.993-2.401l0.236-0.384c0.62-1.032 0.865-2.205 0.691-3.302-0.12-0.762-0.592-1.209-1.248-1.757-0.112-0.094-0.127-0.261-0.033-0.375 0.095-0.111 0.263-0.126 0.375-0.033 0.596 0.499 1.272 1.065 1.432 2.082 0.193 1.22-0.077 2.52-0.762 3.658l-0.239 0.391c-0.445 0.717-0.828 1.336-0.915 2.176-0.019 0.181-0.035 0.378-0.053 0.583-0.081 0.974-0.173 2.077-0.583 2.802-0.049 0.087-0.139 0.134-0.231 0.134z" fill="#5c3727" fill-rule="nonzero"/><path d="m286.92 204.52-0.188-0.079c-0.104-0.103-0.104-0.27-1e-3 -0.375 0.413-0.415 0.358-1.141 0.306-1.845-0.026-0.349-0.051-0.679-0.02-0.976 0.045-0.451 0.213-0.887 0.375-1.307 0.158-0.412 0.307-0.802 0.327-1.162 9e-3 -0.147 0.136-0.239 0.28-0.251 0.147 8e-3 0.259 0.134 0.251 0.28-0.024 0.445-0.196 0.891-0.362 1.323-0.15 0.388-0.304 0.79-0.342 1.169-0.025 0.253-3e-3 0.56 0.021 0.886 0.059 0.784 0.124 1.672-0.459 2.258l-0.188 0.079z" fill="#5c3727" fill-rule="nonzero"/><path d="m284.6 203.16-0.086-0.015c-0.139-0.047-0.212-0.2-0.165-0.338 0.152-0.438 0.028-0.9-0.103-1.388-0.097-0.358-0.196-0.727-0.192-1.109 2e-3 -0.32 0.19-0.723 0.372-1.114 0.105-0.227 0.265-0.569 0.257-0.671-0.048-0.139 0.025-0.282 0.164-0.331 0.138-0.049 0.293 0.03 0.341 0.169 0.088 0.245-0.043 0.547-0.28 1.058-0.143 0.307-0.321 0.689-0.323 0.893-3e-3 0.311 0.083 0.629 0.174 0.967 0.146 0.543 0.299 1.107 0.092 1.701-0.038 0.109-0.14 0.178-0.251 0.178z" fill="#5c3727" fill-rule="nonzero"/><path d="m301.18 217.28c-0.119 0-0.228-0.082-0.258-0.203-0.702-2.836-2.204-4.335-2.219-4.351-0.105-0.103-0.106-0.271-4e-3 -0.375 0.103-0.107 0.271-0.105 0.375-4e-3 0.067 0.063 1.622 1.611 2.364 4.604 0.035 0.142-0.052 0.286-0.195 0.32l-0.063 9e-3z" fill="#859ca2" fill-rule="nonzero"/><path d="m268.99 228.97c-0.1 0-0.196-0.056-0.241-0.155-3.085-6.655-1.68-14.017-1.665-14.091 0.028-0.143 0.159-0.244 0.313-0.209 0.143 0.029 0.237 0.168 0.208 0.312-0.013 0.071-1.383 7.271 1.626 13.767 0.062 0.133 4e-3 0.291-0.129 0.351l-0.112 0.025z" fill="#73514f" fill-rule="nonzero"/><path d="m263.58 221.93c-0.145 0-0.263-0.117-0.265-0.262-0.07-5.309 2.463-8.163 2.571-8.283 0.098-0.109 0.266-0.117 0.375-0.018 0.109 0.098 0.118 0.267 0.019 0.375-0.025 0.028-2.5 2.831-2.434 7.918 2e-3 0.149-0.115 0.269-0.262 0.27h-4e-3z" fill="#73514f" fill-rule="nonzero"/><path d="m300 245.48-0.216-0.112c-0.526-0.734-0.937-1.705-0.955-1.746-0.056-0.137 7e-3 -0.292 0.142-0.349 0.136-0.057 0.291 7e-3 0.348 0.141 4e-3 0.01 0.407 0.959 0.897 1.646 0.086 0.118 0.058 0.284-0.062 0.37l-0.154 0.05z" fill="#73514f" fill-rule="nonzero"/><path d="m299.07 248.21c-0.137 0-0.254-0.105-0.264-0.243-5e-3 -0.058-0.107-1.416 0.796-1.957 0.124-0.079 0.288-0.035 0.364 0.091 0.076 0.125 0.035 0.288-0.091 0.363-0.611 0.369-0.541 1.449-0.54 1.459 0.013 0.146-0.097 0.274-0.243 0.286l-0.022 1e-3z" fill="#73514f" fill-rule="nonzero"/><path d="m265.56 306.08-0.076-0.015c-1.771-0.693-2.809-1.821-2.852-1.868l0.013-0.291 0.291 0.013c0.01 0.012 1.021 1.104 2.699 1.762 0.106 0.042 0.158 0.162 0.117 0.267l-0.192 0.132z" fill="#394876" fill-rule="nonzero"/><path d="m288 303.09c-1.109 0-2.198-0.409-2.259-0.434-0.106-0.039-0.16-0.158-0.119-0.265 0.041-0.106 0.161-0.162 0.266-0.119 0.018 5e-3 1.874 0.702 3.073 0.255 0.11-0.042 0.225 0.016 0.266 0.121 0.039 0.108-0.015 0.226-0.121 0.266-0.344 0.129-0.726 0.176-1.106 0.176z" fill="#394876" fill-rule="nonzero"/></svg>
