<?xml version="1.0" standalone="no"?>
<!DOCTYPE svg PUBLIC "-//W3C//DTD SVG 20010904//EN"
 "http://www.w3.org/TR/2001/REC-SVG-20010904/DTD/svg10.dtd">
<svg version="1.0" xmlns="http://www.w3.org/2000/svg"
 width="223.000000pt" height="223.000000pt" viewBox="0 0 223.000000 223.000000"
 preserveAspectRatio="xMidYMid meet">
<metadata>
Created by potrace 1.14, written by Peter Selinger 2001-2017
</metadata>
<g transform="translate(0.000000,223.000000) scale(0.100000,-0.100000)"
fill="#000000" stroke="none">
<path d="M0 1115 l0 -1065 250 0 250 0 0 623 0 622 33 -60 c34 -61 87 -160
160 -295 22 -41 56 -104 75 -140 44 -80 73 -135 120 -225 20 -38 38 -72 40
-75 2 -3 86 -5 186 -6 l183 -1 53 101 c95 179 371 691 374 694 2 1 4 -273 4
-610 0 -337 1 -616 1 -620 1 -5 113 -8 251 -8 l250 0 0 1065 -1 1065 -250 -2
-250 -3 -41 -75 c-23 -41 -58 -106 -79 -145 -21 -38 -47 -86 -57 -105 -41 -78
-130 -245 -217 -405 -51 -93 -116 -215 -145 -270 -29 -55 -58 -106 -64 -112
-9 -10 -26 15 -74 105 -145 273 -175 330 -207 387 -18 33 -50 94 -72 135 -48
90 -126 236 -204 380 l-56 105 -257 3 -256 2 0 -1065z"/>
</g>
</svg>
