<?xml version="1.0" standalone="no"?>
<!DOCTYPE svg PUBLIC "-//W3C//DTD SVG 20010904//EN"
 "http://www.w3.org/TR/2001/REC-SVG-20010904/DTD/svg10.dtd">
<svg version="1.0" xmlns="http://www.w3.org/2000/svg"
 width="2001.000000pt" height="2001.000000pt" viewBox="0 0 2001.000000 2001.000000"
 preserveAspectRatio="xMidYMid meet">
<metadata>
Created by potrace 1.14, written by Peter Selinger 2001-2017
</metadata>
<g transform="translate(0.000000,2001.000000) scale(0.100000,-0.100000)"
fill="#000000" stroke="none">
<path d="M9665 18354 c-518 -31 -874 -74 -1275 -154 -1453 -291 -2789 -950
-3916 -1935 -186 -162 -571 -545 -736 -732 -1077 -1220 -1765 -2693 -2012
-4303 -69 -453 -91 -757 -91 -1275 1 -434 7 -559 46 -910 130 -1178 524 -2349
1134 -3370 503 -844 1184 -1628 1944 -2239 960 -773 2061 -1316 3266 -1611
1530 -374 3114 -313 4604 176 1070 352 2033 900 2911 1658 171 147 622 595
772 766 991 1133 1645 2461 1933 3927 111 567 158 1046 158 1628 0 340 -9 529
-39 825 -261 2620 -1752 4980 -4011 6348 -1106 670 -2351 1068 -3703 1182
-173 15 -842 28 -985 19z m713 -4746 c9 -9 12 -719 12 -3135 l0 -3124 26 -24
c52 -49 211 -92 372 -102 l92 -6 0 -67 0 -68 -167 -6 c-426 -17 -878 -57
-1183 -103 -227 -34 -275 -35 -318 -5 -18 13 -42 42 -53 64 -49 97 -49 71 -49
1648 0 1401 -1 1480 -19 1565 -66 320 -280 594 -576 740 -235 116 -433 125
-617 28 -239 -126 -386 -428 -455 -938 -22 -163 -25 -808 -5 -1035 53 -612
163 -1021 348 -1301 65 -99 187 -210 275 -252 99 -47 166 -61 279 -60 141 1
354 61 487 139 23 13 45 24 50 24 4 0 16 -14 26 -32 l18 -31 -63 -65 c-144
-146 -355 -305 -542 -407 -347 -189 -748 -255 -1091 -179 -493 110 -887 550
-1061 1182 -191 697 -135 1484 146 2042 259 515 702 871 1266 1015 355 91 762
107 1154 44 110 -17 313 -64 363 -84 16 -7 17 48 17 1059 0 1192 5 1108 -72
1147 -54 28 -192 56 -318 64 l-100 8 0 68 0 69 113 0 c359 0 1080 53 1422 105
181 27 208 28 223 13z m2922 -2376 c0 -230 74 -484 199 -682 265 -421 735
-665 1426 -741 55 -6 101 -12 103 -14 2 -2 -2 -30 -8 -63 l-12 -59 -102 -7
c-625 -42 -1227 -284 -1625 -652 -220 -203 -412 -492 -508 -763 l-28 -81 -67
0 -68 0 0 116 c0 193 -44 364 -141 554 -179 349 -514 595 -991 724 -122 34
-357 73 -485 82 -96 6 -103 8 -103 28 1 30 16 106 23 112 3 4 59 10 124 15
556 41 1109 249 1504 567 98 79 272 258 341 352 125 169 214 342 291 563 5 14
18 17 67 17 l60 0 0 -68z"/>
</g>
</svg>
