<svg width="193" height="193" viewBox="0 0 193 193" fill="none" xmlns="http://www.w3.org/2000/svg">
<circle cx="96.2864" cy="96.2864" r="96.2864" fill="url(#paint0_linear_188_1540)"/>
<g filter="url(#filter0_d_188_1540)">
<path fill-rule="evenodd" clip-rule="evenodd" d="M162.841 108C162.623 108 162.431 108.142 162.36 108.348C161.03 112.201 158.255 114.661 155.298 116.155C152.566 117.534 149.656 118.101 147.515 118.188C147.263 118.198 147.05 118.38 147.007 118.628C146.955 118.935 147.183 119.218 147.493 119.242C152.209 119.611 155.104 121.258 156.766 123.313C158.188 125.07 158.667 127.078 158.649 128.717C158.645 129.026 158.887 129.29 159.196 129.29C159.426 129.29 159.628 129.141 159.704 128.924C161.075 124.993 163.867 122.547 166.82 121.083C169.561 119.725 172.458 119.203 174.544 119.111C174.774 119.101 174.97 118.938 175.016 118.712C175.074 118.421 174.863 118.147 174.568 118.119C169.855 117.681 166.972 116.013 165.306 113.958C163.864 112.181 163.374 110.164 163.357 108.527C163.355 108.24 163.128 108 162.841 108Z" fill="white"/>
</g>
<g filter="url(#filter1_d_188_1540)">
<path fill-rule="evenodd" clip-rule="evenodd" d="M21.7397 85C21.5917 85 21.4614 85.0963 21.4132 85.2362C20.512 87.8479 18.6308 89.5161 16.6258 90.5285C14.7737 91.4636 12.8006 91.8482 11.3491 91.9072C11.1785 91.9142 11.0337 92.0372 11.0051 92.2055C10.9697 92.4135 11.1241 92.6055 11.3344 92.622C14.5314 92.8719 16.4943 93.9883 17.6212 95.3814C18.5851 96.573 18.9099 97.934 18.8974 99.0452C18.895 99.2548 19.0588 99.434 19.2684 99.434C19.4241 99.434 19.5613 99.333 19.6126 99.186C20.5426 96.5205 22.4353 94.8621 24.4374 93.87C26.2957 92.9492 28.2592 92.5954 29.6737 92.533C29.8298 92.5261 29.9628 92.4153 29.9935 92.2621C30.0328 92.0654 29.8899 91.879 29.6902 91.8605C26.495 91.5634 24.5403 90.4324 23.4104 89.0395C22.4329 87.8344 22.1008 86.467 22.0897 85.3574C22.0878 85.163 21.9341 85 21.7397 85Z" fill="white"/>
</g>
<g filter="url(#filter2_d_188_1540)">
<path fill-rule="evenodd" clip-rule="evenodd" d="M43.9523 109.913C43.8386 109.913 43.7385 109.987 43.7014 110.094C43.0092 112.1 41.5642 113.382 40.0242 114.159C38.6016 114.878 37.0859 115.173 35.971 115.219C35.84 115.224 35.7288 115.318 35.7068 115.448C35.6796 115.607 35.7982 115.755 35.9598 115.768C38.4154 115.959 39.9232 116.817 40.7888 117.887C41.5292 118.802 41.7786 119.848 41.769 120.701C41.7672 120.862 41.893 121 42.054 121C42.1736 121 42.279 120.922 42.3184 120.809C43.0328 118.762 44.4866 117.488 46.0245 116.726C47.4518 116.019 48.96 115.747 50.0465 115.699C50.1664 115.694 50.2686 115.609 50.2921 115.491C50.3224 115.34 50.2126 115.197 50.0592 115.183C47.6049 114.954 46.1034 114.086 45.2356 113.016C44.4847 112.09 44.2296 111.04 44.2211 110.187C44.2196 110.038 44.1016 109.913 43.9523 109.913Z" fill="white"/>
</g>
<g filter="url(#filter3_d_188_1540)">
<path d="M96.785 153C83.5443 153 72.7744 141.911 72.7744 128.284L76.4981 91.3198C76.5685 90.6602 77.0542 90.1239 77.6877 90.0079C79.8558 89.6165 81.5734 89.1744 83.2276 88.7395C86.6767 87.8408 89.9429 87 96.1655 87H96.792C103.184 87.174 106.52 87.964 110.054 88.7975C111.771 89.2034 113.573 89.631 115.861 90.0152C116.502 90.1239 117.001 90.6675 117.065 91.3343L120.774 128.125C120.774 141.911 110.012 152.993 96.7779 152.993L96.785 153ZM79.2716 92.7404L75.6675 128.444C75.6745 140.273 85.1422 150.021 96.785 150.021C108.428 150.021 117.895 140.273 117.895 128.284L114.305 92.7694C112.447 92.4215 110.906 92.0591 109.406 91.7039C105.873 90.8632 102.825 90.1456 96.7498 89.9862H96.1796C90.309 89.9862 87.3595 90.7472 83.9456 91.6315C82.5166 92.0011 81.0454 92.3852 79.2716 92.7404Z" fill="white"/>
<path d="M137.092 64.9758C131.521 59.3477 126.015 53.0106 119.692 48.2274C112.847 43.0504 104.956 41.9691 96.6281 41.4751C88.2933 41.9763 80.4024 43.0504 73.5641 48.2274C67.2414 53.0178 61.735 59.3548 56.1641 64.9758C50.7579 70.4322 43.9483 79.2253 47.3781 87.424C51.3809 96.9833 66.1745 93.625 73.9508 92.7228C75.254 92.5724 76.4068 92.4006 77.4666 92.2144C84.5555 90.9757 86.9972 89.1855 96.6353 89.2715C106.101 89.5149 108.672 91.0687 115.804 92.2359C116.864 92.4078 118.017 92.5725 119.32 92.73C127.096 93.6394 141.897 96.9976 145.892 87.4312C149.322 79.2324 142.513 70.4393 137.099 64.983L137.092 64.9758Z" fill="#ABCFE7"/>
<path d="M132.459 95.5083C128.843 95.5083 125.077 94.9856 122.048 94.5631C121.01 94.4199 120.036 94.2838 119.155 94.1836C117.83 94.026 116.649 93.8614 115.575 93.6823C113.169 93.2885 111.293 92.8517 109.481 92.4364C105.887 91.6058 102.786 90.8969 96.6066 90.7394H96.0266C90.0547 90.7394 87.0545 91.4912 83.5816 92.3648C81.8416 92.8016 80.0443 93.2599 77.7315 93.6609C76.6502 93.847 75.4688 94.026 74.1369 94.1836C73.249 94.2838 72.2752 94.4199 71.2297 94.5631C68.2008 94.9784 64.4344 95.5011 60.8184 95.5011C52.9776 95.5011 48.1443 93.0451 46.0247 87.9826C43.1677 81.1443 46.3112 72.8309 55.1257 63.9304C56.4934 62.5484 57.8611 61.1235 59.2359 59.6914C63.4606 55.2805 67.8285 50.7193 72.6905 47.0459C80.1159 41.4178 88.8947 40.4583 96.5421 40C104.361 40.4583 113.14 41.4178 120.587 47.0531C125.456 50.7479 129.846 55.3235 134.085 59.7558C135.445 61.1736 136.791 62.5771 138.145 63.9447C146.959 72.8381 150.11 81.1514 147.253 87.9969C145.141 93.0522 140.3 95.5154 132.459 95.5154V95.5083ZM96.0123 87.7964H96.6495C103.151 87.9683 106.545 88.7488 110.14 89.5722C111.887 89.9732 113.72 90.3957 116.047 90.7752C117.086 90.947 118.217 91.1117 119.492 91.2549C120.394 91.3623 121.389 91.4984 122.449 91.6416C125.542 92.0712 129.044 92.551 132.459 92.551C139.068 92.551 142.906 90.7394 144.532 86.8441C147.518 79.6979 141.567 71.5635 136.047 65.9998C134.686 64.625 133.326 63.2001 131.958 61.7751C127.798 57.4287 123.494 52.939 118.811 49.3874C112.023 44.2533 104.089 43.3798 96.5493 42.9286C89.1811 43.3798 81.2401 44.2533 74.4591 49.3874C69.7905 52.9247 65.5013 57.4 61.3554 61.725C59.9734 63.1714 58.5914 64.6035 57.2095 65.9998C51.6959 71.5635 45.7455 79.705 48.7314 86.8441C50.3568 90.7394 54.1949 92.551 60.804 92.551C64.2196 92.551 67.7211 92.0641 70.8144 91.6416C71.8742 91.4912 72.8766 91.3552 73.7789 91.2549C75.0463 91.1046 76.1776 90.9399 77.2088 90.7609C79.4142 90.3742 81.1542 89.9374 82.8441 89.5078C86.3527 88.6199 89.6752 87.7892 96.0051 87.7892L96.0123 87.7964Z" fill="white"/>
<path d="M65.2111 71C64.8202 71 64.4292 70.8352 64.1429 70.5127C63.6123 69.9108 63.6612 68.9793 64.2477 68.4347C66.2095 66.6146 67.7036 65.0167 69.1489 63.476C71.027 61.4697 72.8003 59.5779 75.4185 57.3422C76.0259 56.8191 76.9266 56.9051 77.4432 57.5357C77.9529 58.1591 77.8621 59.0906 77.2547 59.6137C74.7552 61.7419 73.0377 63.5764 71.2225 65.5183C69.7423 67.1019 68.2133 68.7356 66.1746 70.6202C65.9023 70.8782 65.5533 71 65.2111 71Z" fill="white"/>
<path d="M108.818 129C107.75 129 106.881 128.364 106.853 127.564L105.775 90.5006C105.756 89.6932 106.614 89.0215 107.692 89.0001C108.828 88.9929 109.677 89.6289 109.696 90.4363L110.774 127.499C110.793 128.307 109.935 128.979 108.856 129H108.818Z" fill="white"/>
</g>
<defs>
<filter id="filter0_d_188_1540" x="137.481" y="103.241" width="47.0627" height="40.3279" filterUnits="userSpaceOnUse" color-interpolation-filters="sRGB">
<feFlood flood-opacity="0" result="BackgroundImageFix"/>
<feColorMatrix in="SourceAlpha" type="matrix" values="0 0 0 0 0 0 0 0 0 0 0 0 0 0 0 0 0 0 127 0" result="hardAlpha"/>
<feOffset dy="4.75939"/>
<feGaussianBlur stdDeviation="4.75939"/>
<feComposite in2="hardAlpha" operator="out"/>
<feColorMatrix type="matrix" values="0 0 0 0 1 0 0 0 0 1 0 0 0 0 1 0 0 0 0.25 0"/>
<feBlend mode="normal" in2="BackgroundImageFix" result="effect1_dropShadow_188_1540"/>
<feBlend mode="normal" in="SourceGraphic" in2="effect1_dropShadow_188_1540" result="shape"/>
</filter>
<filter id="filter1_d_188_1540" x="1.48122" y="80.2406" width="38.0376" height="33.4716" filterUnits="userSpaceOnUse" color-interpolation-filters="sRGB">
<feFlood flood-opacity="0" result="BackgroundImageFix"/>
<feColorMatrix in="SourceAlpha" type="matrix" values="0 0 0 0 0 0 0 0 0 0 0 0 0 0 0 0 0 0 127 0" result="hardAlpha"/>
<feOffset dy="4.75939"/>
<feGaussianBlur stdDeviation="4.75939"/>
<feComposite in2="hardAlpha" operator="out"/>
<feColorMatrix type="matrix" values="0 0 0 0 1 0 0 0 0 1 0 0 0 0 1 0 0 0 0.25 0"/>
<feBlend mode="normal" in2="BackgroundImageFix" result="effect1_dropShadow_188_1540"/>
<feBlend mode="normal" in="SourceGraphic" in2="effect1_dropShadow_188_1540" result="shape"/>
</filter>
<filter id="filter2_d_188_1540" x="26.1841" y="105.154" width="33.6318" height="30.1246" filterUnits="userSpaceOnUse" color-interpolation-filters="sRGB">
<feFlood flood-opacity="0" result="BackgroundImageFix"/>
<feColorMatrix in="SourceAlpha" type="matrix" values="0 0 0 0 0 0 0 0 0 0 0 0 0 0 0 0 0 0 127 0" result="hardAlpha"/>
<feOffset dy="4.75939"/>
<feGaussianBlur stdDeviation="4.75939"/>
<feComposite in2="hardAlpha" operator="out"/>
<feColorMatrix type="matrix" values="0 0 0 0 1 0 0 0 0 1 0 0 0 0 1 0 0 0 0.25 0"/>
<feBlend mode="normal" in2="BackgroundImageFix" result="effect1_dropShadow_188_1540"/>
<feBlend mode="normal" in="SourceGraphic" in2="effect1_dropShadow_188_1540" result="shape"/>
</filter>
<filter id="filter3_d_188_1540" x="36" y="35" width="121.277" height="131" filterUnits="userSpaceOnUse" color-interpolation-filters="sRGB">
<feFlood flood-opacity="0" result="BackgroundImageFix"/>
<feColorMatrix in="SourceAlpha" type="matrix" values="0 0 0 0 0 0 0 0 0 0 0 0 0 0 0 0 0 0 127 0" result="hardAlpha"/>
<feOffset dy="4"/>
<feGaussianBlur stdDeviation="4.5"/>
<feComposite in2="hardAlpha" operator="out"/>
<feColorMatrix type="matrix" values="0 0 0 0 1 0 0 0 0 1 0 0 0 0 1 0 0 0 0.25 0"/>
<feBlend mode="normal" in2="BackgroundImageFix" result="effect1_dropShadow_188_1540"/>
<feBlend mode="normal" in="SourceGraphic" in2="effect1_dropShadow_188_1540" result="shape"/>
</filter>
<linearGradient id="paint0_linear_188_1540" x1="96.2864" y1="2e-06" x2="163.395" y2="192.573" gradientUnits="userSpaceOnUse">
<stop stop-color="#8DBEDC"/>
<stop offset="1" stop-color="#557CAF"/>
</linearGradient>
</defs>
</svg>
