<svg width="193" height="195" viewBox="0 0 193 195" fill="none" xmlns="http://www.w3.org/2000/svg">
<circle cx="96.2864" cy="96.2864" r="96.2864" fill="url(#paint0_linear_188_1560)"/>
<g filter="url(#filter0_d_188_1560)">
<path d="M106.713 45.8143C98.217 56.2766 92.0316 65.4726 87.5373 73.3987C84.4472 68.1772 80.3823 62.2383 74.9272 55.5189C74.6949 55.2348 74.2075 55.2348 73.9752 55.5189C54.6835 79.278 52.2604 93.6727 52.1214 98.7189C52.0387 99.5765 51.9999 100.438 51.9999 101.288C51.9999 114.917 62.0708 126.003 74.4503 126.003C75.8211 126.003 77.1585 125.849 78.4625 125.586C83.6114 138.188 95.1322 147 108.52 147C126.684 147 141.458 130.799 141.458 110.89C141.458 109.681 141.402 108.45 141.289 107.231C141.059 99.887 137.561 79.3499 110.327 45.8143C109.444 44.7286 107.593 44.7286 106.711 45.8143H106.713ZM136.654 107.587C136.756 108.69 136.809 109.8 136.809 110.891C136.809 128.245 124.122 142.368 108.522 142.368C92.922 142.368 80.2363 128.245 80.2363 110.891C80.2363 109.795 80.2855 108.683 80.3894 107.587L80.3999 107.434C80.5882 100.789 83.7416 82.1791 108.522 50.9832C133.299 82.1773 136.457 100.789 136.646 107.434L136.654 107.587Z" fill="#ABCFE7"/>
</g>
<path d="M108.52 50.9832C83.7415 82.1791 80.5864 100.789 80.3981 107.434L80.3875 107.587C80.2837 108.683 80.2344 109.795 80.2344 110.891C80.2344 128.245 92.9219 142.368 108.52 142.368C124.118 142.368 136.807 128.245 136.807 110.891C136.807 109.8 136.755 108.692 136.653 107.587L136.644 107.434C136.454 100.789 133.295 82.1791 108.52 50.9832ZM119.353 82.9929C118.795 81.7669 119.333 80.3216 120.567 79.7586C121.794 79.1974 123.247 79.7393 123.807 80.9671C127.365 88.7143 129.717 96.2844 131.648 102.774C132.033 104.065 131.292 105.424 129.999 105.805C129.767 105.877 129.531 105.907 129.304 105.907C128.246 105.907 127.271 105.219 126.957 104.16C125.075 97.8314 122.782 90.456 119.355 82.9947L119.353 82.9929ZM130.325 114.69C128.586 114.662 127.206 113.186 127.24 111.4C127.27 109.611 128.706 108.187 130.441 108.218C132.176 108.248 133.555 109.725 133.526 111.51C133.492 113.298 132.058 114.724 130.325 114.69Z" fill="white"/>
<path d="M120.569 79.7586C119.335 80.3216 118.797 81.7669 119.354 82.9929C122.782 90.456 125.075 97.8296 126.956 104.158C127.271 105.217 128.248 105.905 129.304 105.905C129.531 105.905 129.767 105.873 129.999 105.803C131.294 105.423 132.033 104.065 131.648 102.772C129.717 96.2826 127.365 88.7126 123.806 80.9653C123.247 79.7376 121.793 79.1956 120.567 79.7569L120.569 79.7586Z" fill="#ABCFE7"/>
<rect x="125.231" y="106.026" width="8.71795" height="9.58974" fill="white"/>
<g filter="url(#filter1_d_188_1560)">
<path d="M181 96C181 143.496 142.944 182 96 182C49.0558 182 11 143.496 11 96C11 48.5035 49.0558 10 96 10C142.944 10 181 48.5035 181 96ZM21.2717 96C21.2717 137.757 54.7287 171.607 96 171.607C137.271 171.607 170.728 137.757 170.728 96C170.728 54.2432 137.271 20.3926 96 20.3926C54.7287 20.3926 21.2717 54.2432 21.2717 96Z" fill="url(#paint1_linear_188_1560)"/>
</g>
<defs>
<filter id="filter0_d_188_1560" x="42.9999" y="40" width="107.458" height="120" filterUnits="userSpaceOnUse" color-interpolation-filters="sRGB">
<feFlood flood-opacity="0" result="BackgroundImageFix"/>
<feColorMatrix in="SourceAlpha" type="matrix" values="0 0 0 0 0 0 0 0 0 0 0 0 0 0 0 0 0 0 127 0" result="hardAlpha"/>
<feOffset dy="4"/>
<feGaussianBlur stdDeviation="4.5"/>
<feComposite in2="hardAlpha" operator="out"/>
<feColorMatrix type="matrix" values="0 0 0 0 0.407843 0 0 0 0 0.552941 0 0 0 0 0.694118 0 0 0 0.5 0"/>
<feBlend mode="normal" in2="BackgroundImageFix" result="effect1_dropShadow_188_1560"/>
<feBlend mode="normal" in="SourceGraphic" in2="effect1_dropShadow_188_1560" result="shape"/>
</filter>
<filter id="filter1_d_188_1560" x="2" y="5" width="188" height="190" filterUnits="userSpaceOnUse" color-interpolation-filters="sRGB">
<feFlood flood-opacity="0" result="BackgroundImageFix"/>
<feColorMatrix in="SourceAlpha" type="matrix" values="0 0 0 0 0 0 0 0 0 0 0 0 0 0 0 0 0 0 127 0" result="hardAlpha"/>
<feOffset dy="4"/>
<feGaussianBlur stdDeviation="4.5"/>
<feComposite in2="hardAlpha" operator="out"/>
<feColorMatrix type="matrix" values="0 0 0 0 0.25098 0 0 0 0 0.439216 0 0 0 0 0.666667 0 0 0 0.5 0"/>
<feBlend mode="normal" in2="BackgroundImageFix" result="effect1_dropShadow_188_1560"/>
<feBlend mode="normal" in="SourceGraphic" in2="effect1_dropShadow_188_1560" result="shape"/>
</filter>
<linearGradient id="paint0_linear_188_1560" x1="96.2864" y1="2e-06" x2="163.395" y2="192.573" gradientUnits="userSpaceOnUse">
<stop stop-color="#8DBEDC"/>
<stop offset="1" stop-color="#557CAF"/>
</linearGradient>
<linearGradient id="paint1_linear_188_1560" x1="53.0573" y1="22.9223" x2="145.115" y2="170.77" gradientUnits="userSpaceOnUse">
<stop stop-color="#ABCFE7"/>
<stop offset="1" stop-color="#ABCFE7"/>
</linearGradient>
</defs>
</svg>
