<svg width="193" height="193" viewBox="0 0 193 193" fill="none" xmlns="http://www.w3.org/2000/svg">
<circle cx="96.2864" cy="96.2864" r="96.2864" fill="url(#paint0_linear_210_5619)"/>
<g filter="url(#filter0_d_210_5619)">
<path fill-rule="evenodd" clip-rule="evenodd" d="M41.425 122C41.2814 122 41.1549 122.093 41.108 122.229C40.2333 124.764 38.4072 126.384 36.461 127.366C34.6631 128.274 32.7478 128.648 31.3388 128.705C31.1733 128.712 31.0327 128.831 31.0049 128.994C30.9706 129.196 31.1205 129.383 31.3246 129.399C34.428 129.641 36.3333 130.725 37.4272 132.077C38.3628 133.234 38.6781 134.555 38.666 135.634C38.6637 135.837 38.8227 136.011 39.0261 136.011C39.1773 136.011 39.3104 135.913 39.3602 135.77C40.263 133.183 42.1003 131.573 44.0437 130.61C45.8475 129.716 47.7535 129.373 49.1265 129.312C49.278 129.306 49.4072 129.198 49.4369 129.049C49.4751 128.858 49.3364 128.677 49.1425 128.659C46.041 128.371 44.1435 127.273 43.0468 125.921C42.0979 124.751 41.7755 123.424 41.7648 122.347C41.7629 122.158 41.6137 122 41.425 122Z" fill="white"/>
</g>
<g filter="url(#filter1_d_210_5619)">
<path fill-rule="evenodd" clip-rule="evenodd" d="M149.841 44C149.623 44 149.431 44.142 149.36 44.3483C148.03 48.2007 145.255 50.6613 142.298 52.1545C139.566 53.5339 136.656 54.1012 134.515 54.1882C134.263 54.1985 134.05 54.38 134.007 54.6282C133.955 54.9349 134.183 55.2182 134.493 55.2425C139.209 55.6111 142.104 57.2579 143.766 59.3127C145.188 61.0704 145.667 63.0778 145.649 64.7168C145.645 65.0259 145.887 65.2903 146.196 65.2903C146.426 65.2903 146.628 65.1413 146.704 64.9245C148.075 60.9929 150.867 58.5467 153.82 57.0833C156.561 55.7251 159.458 55.2033 161.544 55.1112C161.774 55.101 161.97 54.9376 162.016 54.7116C162.074 54.4215 161.863 54.1467 161.568 54.1193C156.855 53.6811 153.972 52.0129 152.306 49.9584C150.864 48.1807 150.374 46.1639 150.357 44.5271C150.355 44.2404 150.128 44 149.841 44Z" fill="white"/>
</g>
<g filter="url(#filter2_d_210_5619)">
<path d="M140.324 134.798C140.227 134.798 140.111 134.798 140.015 134.759C131.461 132.873 124.088 123.731 121.688 111.972C119.289 100.213 122.714 88.9734 130.01 84.6816C130.319 84.5083 130.668 84.4314 131.016 84.5083C139.879 86.1827 147.717 95.6517 150.078 107.526C152.419 119.305 148.704 130.448 141.021 134.624C140.808 134.74 140.576 134.798 140.324 134.798ZM124.533 111.414C126.623 121.634 132.99 129.928 140.111 131.834C146.362 128.062 149.284 118.419 147.233 108.104C145.182 97.7687 138.428 89.2043 131.035 87.4722C125.094 91.3791 122.443 101.098 124.533 111.414Z" fill="white"/>
</g>
<g filter="url(#filter3_d_210_5619)">
<path d="M78.3787 86.9912C71.7216 86.9912 64.155 83.7964 57.8075 77.9649C48.9443 69.8239 44.9965 58.9501 47.9961 50.9053C48.1122 50.5781 48.3638 50.2894 48.6734 50.1355C56.3755 46.0746 68.0254 48.9615 76.9853 57.1987C85.9646 65.4167 89.835 76.7524 86.4097 84.7394C86.2743 85.0666 86.0033 85.3361 85.6937 85.4708C83.4876 86.4908 81.0105 86.9912 78.398 86.9912H78.3787ZM50.5312 52.4257C48.3638 59.258 52.0987 68.7847 59.7621 75.8286C67.4448 82.8726 77.2756 85.798 83.9327 83.0651C86.4484 76.2905 82.7715 66.4174 75.0114 59.2965C67.2706 52.1948 57.0915 49.3656 50.5312 52.4257Z" fill="white"/>
</g>
<path d="M48.8662 52.8486C48.5179 52.8486 48.1502 52.7139 47.8793 52.4637C46.0795 50.8085 44.2798 49.1534 42.4607 47.4983C41.8802 46.9594 41.8415 46.0548 42.3833 45.4582C42.9252 44.8808 43.8347 44.8423 44.4346 45.3812C46.2537 47.0364 48.0534 48.6915 49.8725 50.3466C50.4531 50.8855 50.4918 51.8093 49.9499 52.3867C49.6597 52.6946 49.2726 52.8486 48.8856 52.8486H48.8662Z" fill="white"/>
<path d="M130.88 87.1451C130.145 87.1451 129.526 86.6063 129.448 85.8749C129.158 83.3922 128.868 80.9287 128.558 78.446C128.461 77.657 129.023 76.9256 129.816 76.8294C130.629 76.7332 131.345 77.2913 131.442 78.0804C131.751 80.5631 132.041 83.0458 132.332 85.5285C132.428 86.3176 131.848 87.0297 131.054 87.1259C130.996 87.1259 130.938 87.1259 130.88 87.1259V87.1451Z" fill="white"/>
<path d="M136.841 99.7318C136.396 99.7318 135.951 99.5201 135.68 99.1544C134.615 97.711 133.416 96.46 132.158 95.44C131.538 94.9396 131.442 94.035 131.945 93.4192C132.448 92.8033 133.357 92.7071 133.977 93.2075C135.447 94.3815 136.802 95.8056 138.021 97.4415C138.505 98.0767 138.37 98.9812 137.712 99.4624C137.46 99.6548 137.15 99.751 136.841 99.751V99.7318Z" fill="white"/>
<g filter="url(#filter4_d_210_5619)">
<path d="M86.9321 118.939C83.7777 118.939 80.4685 118.497 77.1787 117.554C65.8191 114.339 57.5558 106.468 56.5882 97.942C56.5495 97.5956 56.6269 97.2492 56.8204 96.9797C61.7165 89.8011 73.0761 86.9912 84.4357 90.1475C95.9307 93.323 104.484 101.695 105.2 110.49C105.22 110.837 105.123 111.183 104.929 111.453C101.388 116.283 94.6148 118.939 86.9127 118.939H86.9321ZM59.5491 98.173C60.6715 105.236 68.1413 112.011 77.9721 114.782C87.919 117.592 97.8079 115.687 102.278 110.182C101.33 102.869 93.6279 95.6903 83.681 92.9381C73.7534 90.186 63.942 92.3415 59.5491 98.173Z" fill="white"/>
</g>
<g filter="url(#filter5_d_210_5619)">
<path d="M101.756 58.6228C101.02 58.6228 100.382 58.0647 100.304 57.3141C100.072 54.8314 99.8206 52.3487 99.569 49.866C99.4916 49.0769 100.072 48.3648 100.866 48.2878C101.64 48.2108 102.375 48.7882 102.452 49.5773C102.704 52.06 102.956 54.5427 103.207 57.0447C103.285 57.8338 102.704 58.5458 101.911 58.6228C101.872 58.6228 101.814 58.6228 101.775 58.6228H101.756Z" fill="white"/>
</g>
<g filter="url(#filter6_d_210_5619)">
<path d="M57.7497 99.2506C57.6142 99.2506 57.4788 99.2506 57.3433 99.1929C55.0404 98.5193 52.7376 97.8649 50.4347 97.2106C49.6606 96.9988 49.2155 96.1905 49.4477 95.4207C49.6606 94.6509 50.4734 94.2082 51.2475 94.4392C53.5503 95.0935 55.8726 95.7671 58.1755 96.4407C58.9495 96.6717 59.3753 97.4607 59.1624 98.2306C58.9689 98.8657 58.4077 99.2699 57.7691 99.2699L57.7497 99.2506Z" fill="white"/>
</g>
<g filter="url(#filter7_d_210_5619)">
<path d="M110.445 97.865C110.232 97.865 110.019 97.8265 109.806 97.7111C109.09 97.3646 108.781 96.4986 109.148 95.7865C111.103 91.8026 111.664 86.741 110.716 81.5061C110.271 79.0234 109.516 76.6369 108.452 74.4236C108.103 73.7115 108.413 72.8455 109.148 72.4991C109.884 72.1526 110.735 72.4606 111.083 73.1919C112.245 75.6361 113.077 78.2536 113.58 80.9865C114.625 86.8179 113.986 92.5147 111.761 97.0375C111.509 97.5571 110.987 97.8458 110.464 97.8458L110.445 97.865Z" fill="white"/>
</g>
<g filter="url(#filter8_d_210_5619)">
<path d="M107.465 71.3249C107.02 71.3249 106.555 71.1132 106.284 70.7091C105.239 69.2464 104.078 67.9762 102.82 66.9369C102.201 66.4173 102.123 65.5127 102.646 64.8968C103.168 64.281 104.078 64.204 104.697 64.7236C106.149 65.9169 107.465 67.3795 108.664 69.0347C109.129 69.689 108.974 70.5936 108.316 71.0555C108.065 71.2287 107.774 71.3249 107.484 71.3249H107.465Z" fill="white"/>
</g>
<g filter="url(#filter9_d_210_5619)">
<path d="M96.7438 108.142C96.2987 108.142 95.8536 107.931 95.5633 107.546C92.7573 103.716 88.0741 100.656 82.6943 99.1545C77.1209 97.5956 71.4508 97.8651 67.1547 99.9051C66.4386 100.252 65.5678 99.9436 65.2195 99.2123C64.8711 98.5002 65.1808 97.6341 65.9161 97.2877C70.8509 94.959 77.2564 94.6318 83.4877 96.3639C89.4868 98.0383 94.7505 101.483 97.9243 105.833C98.3887 106.468 98.2533 107.373 97.5953 107.854C97.3437 108.046 97.0341 108.123 96.7438 108.123V108.142Z" fill="white"/>
</g>
<g filter="url(#filter10_d_210_5619)">
<path d="M60.6521 58.546C60.5553 58.546 60.4392 58.546 60.3424 58.5075C58.7943 58.161 57.3042 58.0456 55.9108 58.1418C55.1368 58.1995 54.4207 57.6029 54.3627 56.8138C54.3046 56.0248 54.9045 55.3319 55.698 55.2742C57.3816 55.1587 59.1426 55.2934 60.9617 55.6976C61.7358 55.8708 62.2389 56.6406 62.0648 57.4297C61.9099 58.1033 61.31 58.5652 60.6521 58.5652V58.546Z" fill="white"/>
</g>
<g filter="url(#filter11_d_210_5619)">
<path d="M79.9655 79.3121C79.2108 79.3121 78.5915 78.7348 78.5141 77.9842C78.1271 73.3844 75.3404 68.2843 71.0829 64.3774C69.2445 62.703 67.2513 61.2981 65.1419 60.2588C64.4259 59.8931 64.1356 59.0271 64.5033 58.315C64.871 57.6029 65.7418 57.3142 66.4578 57.6798C68.8188 58.8538 71.0442 60.3935 73.0762 62.2603C77.9335 66.7061 80.9718 72.3644 81.4362 77.7532C81.4943 78.5423 80.9137 79.2544 80.1203 79.3121C80.0816 79.3121 80.0429 79.3121 80.0042 79.3121H79.9655Z" fill="white"/>
</g>
<path d="M88.0814 127.342L96.6745 119.976H107.723L119.999 122.432L129.819 129.797L133.502 138.39L129.819 142.073L124.909 144.528L111.406 146.983L95.4469 138.39L88.0814 127.342Z" fill="#A4C7E5"/>
<path d="M100.893 56.8625L111.476 61.9266L116.539 72.5206L119.949 85.3504L117.803 97.9432L111.737 105.18L106.727 103.236L102.262 99.5863L93.8589 87.6966L94.2996 68.6889L100.893 56.8625Z" fill="#A4C7E5"/>
<g filter="url(#filter12_d_210_5619)">
<path d="M116.618 147.731C113.657 147.731 110.58 147.346 107.484 146.538C96.0663 143.555 87.6482 135.837 86.5064 127.33C86.4677 126.984 86.5451 126.637 86.7193 126.349C91.4799 119.074 102.781 116.033 114.199 118.978C125.752 121.942 134.461 130.121 135.351 138.897C135.389 139.243 135.293 139.59 135.099 139.879C131.558 144.902 124.552 147.731 116.579 147.731H116.618ZM89.4866 127.484C90.7445 134.509 98.3498 141.149 108.239 143.747C118.244 146.345 128.074 144.267 132.448 138.666C131.364 131.372 123.507 124.347 113.522 121.788C103.536 119.228 93.7634 121.576 89.506 127.504L89.4866 127.484Z" fill="white"/>
</g>
<g filter="url(#filter13_d_210_5619)">
<path d="M110.271 106.468C110.155 106.468 110.039 106.468 109.923 106.429C101.408 104.389 94.2281 95.0936 92.0413 83.296C89.8739 71.479 93.5121 60.3357 100.905 56.1594C101.214 55.9862 101.562 55.9284 101.911 56.0054C110.735 57.853 118.379 67.4567 120.508 79.3891C122.637 91.2252 118.689 102.292 110.929 106.295C110.716 106.41 110.484 106.449 110.252 106.449L110.271 106.468ZM94.9054 82.7763C96.8019 93.0343 102.995 101.445 110.077 103.485C116.405 99.8281 119.521 90.2437 117.663 79.9087C115.806 69.5352 109.226 60.8361 101.872 58.9693C95.8537 62.7607 93.0089 72.4221 94.9054 82.7763Z" fill="white"/>
</g>
<defs>
<filter id="filter0_d_210_5619" x="21.4812" y="117.241" width="37.4808" height="33.0486" filterUnits="userSpaceOnUse" color-interpolation-filters="sRGB">
<feFlood flood-opacity="0" result="BackgroundImageFix"/>
<feColorMatrix in="SourceAlpha" type="matrix" values="0 0 0 0 0 0 0 0 0 0 0 0 0 0 0 0 0 0 127 0" result="hardAlpha"/>
<feOffset dy="4.75939"/>
<feGaussianBlur stdDeviation="4.75939"/>
<feComposite in2="hardAlpha" operator="out"/>
<feColorMatrix type="matrix" values="0 0 0 0 1 0 0 0 0 1 0 0 0 0 1 0 0 0 0.25 0"/>
<feBlend mode="normal" in2="BackgroundImageFix" result="effect1_dropShadow_210_5619"/>
<feBlend mode="normal" in="SourceGraphic" in2="effect1_dropShadow_210_5619" result="shape"/>
</filter>
<filter id="filter1_d_210_5619" x="124.481" y="39.2406" width="47.0628" height="40.3279" filterUnits="userSpaceOnUse" color-interpolation-filters="sRGB">
<feFlood flood-opacity="0" result="BackgroundImageFix"/>
<feColorMatrix in="SourceAlpha" type="matrix" values="0 0 0 0 0 0 0 0 0 0 0 0 0 0 0 0 0 0 127 0" result="hardAlpha"/>
<feOffset dy="4.75939"/>
<feGaussianBlur stdDeviation="4.75939"/>
<feComposite in2="hardAlpha" operator="out"/>
<feColorMatrix type="matrix" values="0 0 0 0 1 0 0 0 0 1 0 0 0 0 1 0 0 0 0.25 0"/>
<feBlend mode="normal" in2="BackgroundImageFix" result="effect1_dropShadow_210_5619"/>
<feBlend mode="normal" in="SourceGraphic" in2="effect1_dropShadow_210_5619" result="shape"/>
</filter>
<filter id="filter2_d_210_5619" x="111.929" y="79.4785" width="47.8436" height="68.3191" filterUnits="userSpaceOnUse" color-interpolation-filters="sRGB">
<feFlood flood-opacity="0" result="BackgroundImageFix"/>
<feColorMatrix in="SourceAlpha" type="matrix" values="0 0 0 0 0 0 0 0 0 0 0 0 0 0 0 0 0 0 127 0" result="hardAlpha"/>
<feOffset dy="4"/>
<feGaussianBlur stdDeviation="4.5"/>
<feComposite in2="hardAlpha" operator="out"/>
<feColorMatrix type="matrix" values="0 0 0 0 1 0 0 0 0 1 0 0 0 0 1 0 0 0 0.25 0"/>
<feBlend mode="normal" in2="BackgroundImageFix" result="effect1_dropShadow_210_5619"/>
<feBlend mode="normal" in="SourceGraphic" in2="effect1_dropShadow_210_5619" result="shape"/>
</filter>
<filter id="filter3_d_210_5619" x="38.0033" y="43.3133" width="58.6424" height="56.6779" filterUnits="userSpaceOnUse" color-interpolation-filters="sRGB">
<feFlood flood-opacity="0" result="BackgroundImageFix"/>
<feColorMatrix in="SourceAlpha" type="matrix" values="0 0 0 0 0 0 0 0 0 0 0 0 0 0 0 0 0 0 127 0" result="hardAlpha"/>
<feOffset dy="4"/>
<feGaussianBlur stdDeviation="4.5"/>
<feComposite in2="hardAlpha" operator="out"/>
<feColorMatrix type="matrix" values="0 0 0 0 1 0 0 0 0 1 0 0 0 0 1 0 0 0 0.25 0"/>
<feBlend mode="normal" in2="BackgroundImageFix" result="effect1_dropShadow_210_5619"/>
<feBlend mode="normal" in="SourceGraphic" in2="effect1_dropShadow_210_5619" result="shape"/>
</filter>
<filter id="filter4_d_210_5619" x="47.5785" y="83.8639" width="66.6242" height="48.0753" filterUnits="userSpaceOnUse" color-interpolation-filters="sRGB">
<feFlood flood-opacity="0" result="BackgroundImageFix"/>
<feColorMatrix in="SourceAlpha" type="matrix" values="0 0 0 0 0 0 0 0 0 0 0 0 0 0 0 0 0 0 127 0" result="hardAlpha"/>
<feOffset dy="4"/>
<feGaussianBlur stdDeviation="4.5"/>
<feComposite in2="hardAlpha" operator="out"/>
<feColorMatrix type="matrix" values="0 0 0 0 1 0 0 0 0 1 0 0 0 0 1 0 0 0 0.25 0"/>
<feBlend mode="normal" in2="BackgroundImageFix" result="effect1_dropShadow_210_5619"/>
<feBlend mode="normal" in="SourceGraphic" in2="effect1_dropShadow_210_5619" result="shape"/>
</filter>
<filter id="filter5_d_210_5619" x="90.5621" y="43.2809" width="21.652" height="28.3419" filterUnits="userSpaceOnUse" color-interpolation-filters="sRGB">
<feFlood flood-opacity="0" result="BackgroundImageFix"/>
<feColorMatrix in="SourceAlpha" type="matrix" values="0 0 0 0 0 0 0 0 0 0 0 0 0 0 0 0 0 0 127 0" result="hardAlpha"/>
<feOffset dy="4"/>
<feGaussianBlur stdDeviation="4.5"/>
<feComposite in2="hardAlpha" operator="out"/>
<feColorMatrix type="matrix" values="0 0 0 0 1 0 0 0 0 1 0 0 0 0 1 0 0 0 0.25 0"/>
<feBlend mode="normal" in2="BackgroundImageFix" result="effect1_dropShadow_210_5619"/>
<feBlend mode="normal" in="SourceGraphic" in2="effect1_dropShadow_210_5619" result="shape"/>
</filter>
<filter id="filter6_d_210_5619" x="40.3861" y="89.3779" width="27.8309" height="22.892" filterUnits="userSpaceOnUse" color-interpolation-filters="sRGB">
<feFlood flood-opacity="0" result="BackgroundImageFix"/>
<feColorMatrix in="SourceAlpha" type="matrix" values="0 0 0 0 0 0 0 0 0 0 0 0 0 0 0 0 0 0 127 0" result="hardAlpha"/>
<feOffset dy="4"/>
<feGaussianBlur stdDeviation="4.5"/>
<feComposite in2="hardAlpha" operator="out"/>
<feColorMatrix type="matrix" values="0 0 0 0 1 0 0 0 0 1 0 0 0 0 1 0 0 0 0.25 0"/>
<feBlend mode="normal" in2="BackgroundImageFix" result="effect1_dropShadow_210_5619"/>
<feBlend mode="normal" in="SourceGraphic" in2="effect1_dropShadow_210_5619" result="shape"/>
</filter>
<filter id="filter7_d_210_5619" x="99.3086" y="67.3569" width="23.7606" height="43.5081" filterUnits="userSpaceOnUse" color-interpolation-filters="sRGB">
<feFlood flood-opacity="0" result="BackgroundImageFix"/>
<feColorMatrix in="SourceAlpha" type="matrix" values="0 0 0 0 0 0 0 0 0 0 0 0 0 0 0 0 0 0 127 0" result="hardAlpha"/>
<feOffset dy="4"/>
<feGaussianBlur stdDeviation="4.5"/>
<feComposite in2="hardAlpha" operator="out"/>
<feColorMatrix type="matrix" values="0 0 0 0 1 0 0 0 0 1 0 0 0 0 1 0 0 0 0.25 0"/>
<feBlend mode="normal" in2="BackgroundImageFix" result="effect1_dropShadow_210_5619"/>
<feBlend mode="normal" in="SourceGraphic" in2="effect1_dropShadow_210_5619" result="shape"/>
</filter>
<filter id="filter8_d_210_5619" x="93.2997" y="59.3793" width="24.6324" height="24.9457" filterUnits="userSpaceOnUse" color-interpolation-filters="sRGB">
<feFlood flood-opacity="0" result="BackgroundImageFix"/>
<feColorMatrix in="SourceAlpha" type="matrix" values="0 0 0 0 0 0 0 0 0 0 0 0 0 0 0 0 0 0 127 0" result="hardAlpha"/>
<feOffset dy="4"/>
<feGaussianBlur stdDeviation="4.5"/>
<feComposite in2="hardAlpha" operator="out"/>
<feColorMatrix type="matrix" values="0 0 0 0 1 0 0 0 0 1 0 0 0 0 1 0 0 0 0.25 0"/>
<feBlend mode="normal" in2="BackgroundImageFix" result="effect1_dropShadow_210_5619"/>
<feBlend mode="normal" in="SourceGraphic" in2="effect1_dropShadow_210_5619" result="shape"/>
</filter>
<filter id="filter9_d_210_5619" x="56.0765" y="90.2669" width="51.1221" height="30.8755" filterUnits="userSpaceOnUse" color-interpolation-filters="sRGB">
<feFlood flood-opacity="0" result="BackgroundImageFix"/>
<feColorMatrix in="SourceAlpha" type="matrix" values="0 0 0 0 0 0 0 0 0 0 0 0 0 0 0 0 0 0 127 0" result="hardAlpha"/>
<feOffset dy="4"/>
<feGaussianBlur stdDeviation="4.5"/>
<feComposite in2="hardAlpha" operator="out"/>
<feColorMatrix type="matrix" values="0 0 0 0 1 0 0 0 0 1 0 0 0 0 1 0 0 0 0.25 0"/>
<feBlend mode="normal" in2="BackgroundImageFix" result="effect1_dropShadow_210_5619"/>
<feBlend mode="normal" in="SourceGraphic" in2="effect1_dropShadow_210_5619" result="shape"/>
</filter>
<filter id="filter10_d_210_5619" x="45.3588" y="50.2344" width="25.7405" height="21.3308" filterUnits="userSpaceOnUse" color-interpolation-filters="sRGB">
<feFlood flood-opacity="0" result="BackgroundImageFix"/>
<feColorMatrix in="SourceAlpha" type="matrix" values="0 0 0 0 0 0 0 0 0 0 0 0 0 0 0 0 0 0 127 0" result="hardAlpha"/>
<feOffset dy="4"/>
<feGaussianBlur stdDeviation="4.5"/>
<feComposite in2="hardAlpha" operator="out"/>
<feColorMatrix type="matrix" values="0 0 0 0 1 0 0 0 0 1 0 0 0 0 1 0 0 0 0.25 0"/>
<feBlend mode="normal" in2="BackgroundImageFix" result="effect1_dropShadow_210_5619"/>
<feBlend mode="normal" in="SourceGraphic" in2="effect1_dropShadow_210_5619" result="shape"/>
</filter>
<filter id="filter11_d_210_5619" x="55.3437" y="52.5211" width="35.0965" height="39.791" filterUnits="userSpaceOnUse" color-interpolation-filters="sRGB">
<feFlood flood-opacity="0" result="BackgroundImageFix"/>
<feColorMatrix in="SourceAlpha" type="matrix" values="0 0 0 0 0 0 0 0 0 0 0 0 0 0 0 0 0 0 127 0" result="hardAlpha"/>
<feOffset dy="4"/>
<feGaussianBlur stdDeviation="4.5"/>
<feComposite in2="hardAlpha" operator="out"/>
<feColorMatrix type="matrix" values="0 0 0 0 1 0 0 0 0 1 0 0 0 0 1 0 0 0 0.25 0"/>
<feBlend mode="normal" in2="BackgroundImageFix" result="effect1_dropShadow_210_5619"/>
<feBlend mode="normal" in="SourceGraphic" in2="effect1_dropShadow_210_5619" result="shape"/>
</filter>
<filter id="filter12_d_210_5619" x="77.4966" y="112.864" width="66.8625" height="47.8673" filterUnits="userSpaceOnUse" color-interpolation-filters="sRGB">
<feFlood flood-opacity="0" result="BackgroundImageFix"/>
<feColorMatrix in="SourceAlpha" type="matrix" values="0 0 0 0 0 0 0 0 0 0 0 0 0 0 0 0 0 0 127 0" result="hardAlpha"/>
<feOffset dy="4"/>
<feGaussianBlur stdDeviation="4.5"/>
<feComposite in2="hardAlpha" operator="out"/>
<feColorMatrix type="matrix" values="0 0 0 0 1 0 0 0 0 1 0 0 0 0 1 0 0 0 0.25 0"/>
<feBlend mode="normal" in2="BackgroundImageFix" result="effect1_dropShadow_210_5619"/>
<feBlend mode="normal" in="SourceGraphic" in2="effect1_dropShadow_210_5619" result="shape"/>
</filter>
<filter id="filter13_d_210_5619" x="82.4204" y="50.972" width="47.6597" height="68.496" filterUnits="userSpaceOnUse" color-interpolation-filters="sRGB">
<feFlood flood-opacity="0" result="BackgroundImageFix"/>
<feColorMatrix in="SourceAlpha" type="matrix" values="0 0 0 0 0 0 0 0 0 0 0 0 0 0 0 0 0 0 127 0" result="hardAlpha"/>
<feOffset dy="4"/>
<feGaussianBlur stdDeviation="4.5"/>
<feComposite in2="hardAlpha" operator="out"/>
<feColorMatrix type="matrix" values="0 0 0 0 1 0 0 0 0 1 0 0 0 0 1 0 0 0 0.25 0"/>
<feBlend mode="normal" in2="BackgroundImageFix" result="effect1_dropShadow_210_5619"/>
<feBlend mode="normal" in="SourceGraphic" in2="effect1_dropShadow_210_5619" result="shape"/>
</filter>
<linearGradient id="paint0_linear_210_5619" x1="96.2864" y1="2e-06" x2="163.395" y2="192.573" gradientUnits="userSpaceOnUse">
<stop stop-color="#8DBEDC"/>
<stop offset="1" stop-color="#557CAF"/>
</linearGradient>
</defs>
</svg>
