<svg width="194" height="193" viewBox="0 0 194 193" fill="none" xmlns="http://www.w3.org/2000/svg">
<circle cx="97.1145" cy="96.2864" r="96.2864" fill="url(#paint0_linear_188_1427)"/>
<g filter="url(#filter0_d_188_1427)">
<path fill-rule="evenodd" clip-rule="evenodd" d="M83.8994 46.4932C83.527 46.4932 83.199 46.7356 83.0775 47.0876C80.8092 53.6617 76.074 57.8607 71.0273 60.4088C66.3655 62.7626 61.3989 63.7308 57.7453 63.8793C57.3161 63.8967 56.9515 64.2065 56.8794 64.6301V64.6301C56.7904 65.1535 57.1791 65.637 57.7085 65.6784C65.7556 66.3073 70.6964 69.1176 73.5328 72.6241C75.959 75.6236 76.7765 79.0493 76.7451 81.8462C76.7392 82.3737 77.1514 82.8249 77.679 82.8249V82.8249C78.0709 82.8249 78.4162 82.5706 78.5453 82.2006C80.8863 75.4914 85.6504 71.317 90.6899 68.8197C95.3672 66.5019 100.31 65.6115 103.87 65.4543C104.263 65.437 104.598 65.1581 104.675 64.7724V64.7724C104.774 64.2773 104.414 63.8084 103.911 63.7616C95.869 63.0139 90.9487 60.1671 88.1048 56.6611C85.6442 53.6276 84.8083 50.1859 84.7804 47.3927C84.7756 46.9035 84.3887 46.4932 83.8994 46.4932V46.4932Z" fill="white"/>
</g>
<g filter="url(#filter1_d_188_1427)">
<path fill-rule="evenodd" clip-rule="evenodd" d="M115.939 25.2029C115.721 25.2029 115.529 25.3449 115.458 25.5512C114.128 29.4036 111.353 31.8642 108.396 33.3574C105.664 34.7367 102.754 35.3041 100.613 35.3911C100.361 35.4013 100.148 35.5829 100.105 35.8311V35.8311C100.053 36.1378 100.281 36.4211 100.591 36.4454C105.307 36.8139 108.202 38.4607 109.864 40.5156C111.286 42.2732 111.765 44.2807 111.747 45.9197C111.743 46.2288 111.985 46.4932 112.294 46.4932V46.4932C112.524 46.4932 112.726 46.3442 112.802 46.1274C114.173 42.1958 116.965 39.7496 119.918 38.2862C122.659 36.928 125.555 36.4062 127.642 36.3141C127.872 36.3039 128.068 36.1405 128.114 35.9145V35.9145C128.172 35.6243 127.961 35.3495 127.666 35.3222C122.953 34.884 120.07 33.2158 118.404 31.1613C116.962 29.3836 116.472 27.3668 116.455 25.73C116.453 25.4433 116.226 25.2029 115.939 25.2029V25.2029Z" fill="white"/>
</g>
<g filter="url(#filter2_d_188_1427)">
<path fill-rule="evenodd" clip-rule="evenodd" d="M115.116 75.8193C114.973 75.8193 114.846 75.9128 114.799 76.0486C113.925 78.5838 112.099 80.2031 110.152 81.1858C108.354 82.0935 106.439 82.4669 105.03 82.5242C104.865 82.5309 104.724 82.6504 104.696 82.8137V82.8137C104.662 83.0156 104.812 83.202 105.016 83.218C108.119 83.4605 110.025 84.5443 111.119 85.8965C112.054 87.0533 112.369 88.3744 112.357 89.453C112.355 89.6564 112.514 89.8304 112.717 89.8304V89.8304C112.869 89.8304 113.002 89.7324 113.052 89.5897C113.954 87.0023 115.792 85.3925 117.735 84.4294C119.539 83.5356 121.445 83.1922 122.818 83.1316C122.969 83.1249 123.099 83.0173 123.128 82.8686V82.8686C123.166 82.6777 123.028 82.4968 122.834 82.4788C119.732 82.1904 117.835 81.0926 116.738 79.7405C115.789 78.5707 115.467 77.2434 115.456 76.1662C115.454 75.9776 115.305 75.8193 115.116 75.8193V75.8193Z" fill="white"/>
</g>
<g filter="url(#filter3_d_188_1427)">
<path d="M82.2742 108.029L17.3169 107.92C22.8699 147.018 56.479 177.083 97.1105 177.083C137.76 177.083 171.382 146.99 176.912 107.867L109.129 108.029C101.214 108.029 103.004 118.249 104.889 123.359C107.598 133.606 109.765 153.959 96.7616 153.394C80.5074 152.687 86.5144 130.073 89.6945 118.765C92.2387 109.719 85.8077 107.839 82.2742 108.029Z" fill="url(#paint1_linear_188_1427)"/>
</g>
<g filter="url(#filter4_d_188_1427)">
<path d="M38.8921 117.685H48.0412" stroke="white" stroke-width="3.56954" stroke-linecap="round"/>
</g>
<g filter="url(#filter5_d_188_1427)">
<path d="M63.7075 128.972H72.8566" stroke="white" stroke-width="3.56954" stroke-linecap="round"/>
</g>
<g filter="url(#filter6_d_188_1427)">
<path d="M48.041 142.475H57.1901" stroke="white" stroke-width="3.56954" stroke-linecap="round"/>
</g>
<g filter="url(#filter7_d_188_1427)">
<path d="M133.796 119.954H142.945" stroke="white" stroke-width="3.56954" stroke-linecap="round"/>
</g>
<g filter="url(#filter8_d_188_1427)">
<path d="M142.945 128.972H152.094" stroke="white" stroke-width="3.56954" stroke-linecap="round"/>
</g>
<g filter="url(#filter9_d_188_1427)">
<path d="M133.796 150.117H142.945" stroke="white" stroke-width="3.56954" stroke-linecap="round"/>
</g>
<defs>
<filter id="filter0_d_188_1427" x="47.348" y="41.7338" width="66.8622" height="55.3692" filterUnits="userSpaceOnUse" color-interpolation-filters="sRGB">
<feFlood flood-opacity="0" result="BackgroundImageFix"/>
<feColorMatrix in="SourceAlpha" type="matrix" values="0 0 0 0 0 0 0 0 0 0 0 0 0 0 0 0 0 0 127 0" result="hardAlpha"/>
<feOffset dy="4.75939"/>
<feGaussianBlur stdDeviation="4.75939"/>
<feComposite in2="hardAlpha" operator="out"/>
<feColorMatrix type="matrix" values="0 0 0 0 1 0 0 0 0 1 0 0 0 0 1 0 0 0 0.25 0"/>
<feBlend mode="normal" in2="BackgroundImageFix" result="effect1_dropShadow_188_1427"/>
<feBlend mode="normal" in="SourceGraphic" in2="effect1_dropShadow_188_1427" result="shape"/>
</filter>
<filter id="filter1_d_188_1427" x="90.5794" y="20.4435" width="47.0627" height="40.3279" filterUnits="userSpaceOnUse" color-interpolation-filters="sRGB">
<feFlood flood-opacity="0" result="BackgroundImageFix"/>
<feColorMatrix in="SourceAlpha" type="matrix" values="0 0 0 0 0 0 0 0 0 0 0 0 0 0 0 0 0 0 127 0" result="hardAlpha"/>
<feOffset dy="4.75939"/>
<feGaussianBlur stdDeviation="4.75939"/>
<feComposite in2="hardAlpha" operator="out"/>
<feColorMatrix type="matrix" values="0 0 0 0 1 0 0 0 0 1 0 0 0 0 1 0 0 0 0.25 0"/>
<feBlend mode="normal" in2="BackgroundImageFix" result="effect1_dropShadow_188_1427"/>
<feBlend mode="normal" in="SourceGraphic" in2="effect1_dropShadow_188_1427" result="shape"/>
</filter>
<filter id="filter2_d_188_1427" x="95.1726" y="71.0599" width="37.4808" height="33.0486" filterUnits="userSpaceOnUse" color-interpolation-filters="sRGB">
<feFlood flood-opacity="0" result="BackgroundImageFix"/>
<feColorMatrix in="SourceAlpha" type="matrix" values="0 0 0 0 0 0 0 0 0 0 0 0 0 0 0 0 0 0 127 0" result="hardAlpha"/>
<feOffset dy="4.75939"/>
<feGaussianBlur stdDeviation="4.75939"/>
<feComposite in2="hardAlpha" operator="out"/>
<feColorMatrix type="matrix" values="0 0 0 0 1 0 0 0 0 1 0 0 0 0 1 0 0 0 0.25 0"/>
<feBlend mode="normal" in2="BackgroundImageFix" result="effect1_dropShadow_188_1427"/>
<feBlend mode="normal" in="SourceGraphic" in2="effect1_dropShadow_188_1427" result="shape"/>
</filter>
<filter id="filter3_d_188_1427" x="7.79811" y="103.107" width="178.632" height="88.2542" filterUnits="userSpaceOnUse" color-interpolation-filters="sRGB">
<feFlood flood-opacity="0" result="BackgroundImageFix"/>
<feColorMatrix in="SourceAlpha" type="matrix" values="0 0 0 0 0 0 0 0 0 0 0 0 0 0 0 0 0 0 127 0" result="hardAlpha"/>
<feOffset dy="4.75939"/>
<feGaussianBlur stdDeviation="4.75939"/>
<feComposite in2="hardAlpha" operator="out"/>
<feColorMatrix type="matrix" values="0 0 0 0 0.252778 0 0 0 0 0.438795 0 0 0 0 0.666667 0 0 0 0.5 0"/>
<feBlend mode="normal" in2="BackgroundImageFix" result="effect1_dropShadow_188_1427"/>
<feBlend mode="normal" in="SourceGraphic" in2="effect1_dropShadow_188_1427" result="shape"/>
</filter>
<filter id="filter4_d_188_1427" x="28.7784" y="108.761" width="29.3765" height="20.2274" filterUnits="userSpaceOnUse" color-interpolation-filters="sRGB">
<feFlood flood-opacity="0" result="BackgroundImageFix"/>
<feColorMatrix in="SourceAlpha" type="matrix" values="0 0 0 0 0 0 0 0 0 0 0 0 0 0 0 0 0 0 127 0" result="hardAlpha"/>
<feOffset dy="1.18985"/>
<feGaussianBlur stdDeviation="4.16447"/>
<feComposite in2="hardAlpha" operator="out"/>
<feColorMatrix type="matrix" values="0 0 0 0 0.442222 0 0 0 0 0.61613 0 0 0 0 0.829167 0 0 0 1 0"/>
<feBlend mode="normal" in2="BackgroundImageFix" result="effect1_dropShadow_188_1427"/>
<feBlend mode="normal" in="SourceGraphic" in2="effect1_dropShadow_188_1427" result="shape"/>
</filter>
<filter id="filter5_d_188_1427" x="53.5938" y="120.048" width="29.3765" height="20.2274" filterUnits="userSpaceOnUse" color-interpolation-filters="sRGB">
<feFlood flood-opacity="0" result="BackgroundImageFix"/>
<feColorMatrix in="SourceAlpha" type="matrix" values="0 0 0 0 0 0 0 0 0 0 0 0 0 0 0 0 0 0 127 0" result="hardAlpha"/>
<feOffset dy="1.18985"/>
<feGaussianBlur stdDeviation="4.16447"/>
<feComposite in2="hardAlpha" operator="out"/>
<feColorMatrix type="matrix" values="0 0 0 0 0.442222 0 0 0 0 0.61613 0 0 0 0 0.829167 0 0 0 1 0"/>
<feBlend mode="normal" in2="BackgroundImageFix" result="effect1_dropShadow_188_1427"/>
<feBlend mode="normal" in="SourceGraphic" in2="effect1_dropShadow_188_1427" result="shape"/>
</filter>
<filter id="filter6_d_188_1427" x="37.9273" y="133.551" width="29.3765" height="20.2274" filterUnits="userSpaceOnUse" color-interpolation-filters="sRGB">
<feFlood flood-opacity="0" result="BackgroundImageFix"/>
<feColorMatrix in="SourceAlpha" type="matrix" values="0 0 0 0 0 0 0 0 0 0 0 0 0 0 0 0 0 0 127 0" result="hardAlpha"/>
<feOffset dy="1.18985"/>
<feGaussianBlur stdDeviation="4.16447"/>
<feComposite in2="hardAlpha" operator="out"/>
<feColorMatrix type="matrix" values="0 0 0 0 0.442222 0 0 0 0 0.61613 0 0 0 0 0.829167 0 0 0 1 0"/>
<feBlend mode="normal" in2="BackgroundImageFix" result="effect1_dropShadow_188_1427"/>
<feBlend mode="normal" in="SourceGraphic" in2="effect1_dropShadow_188_1427" result="shape"/>
</filter>
<filter id="filter7_d_188_1427" x="123.683" y="111.03" width="29.3765" height="20.2274" filterUnits="userSpaceOnUse" color-interpolation-filters="sRGB">
<feFlood flood-opacity="0" result="BackgroundImageFix"/>
<feColorMatrix in="SourceAlpha" type="matrix" values="0 0 0 0 0 0 0 0 0 0 0 0 0 0 0 0 0 0 127 0" result="hardAlpha"/>
<feOffset dy="1.18985"/>
<feGaussianBlur stdDeviation="4.16447"/>
<feComposite in2="hardAlpha" operator="out"/>
<feColorMatrix type="matrix" values="0 0 0 0 0.442222 0 0 0 0 0.61613 0 0 0 0 0.829167 0 0 0 1 0"/>
<feBlend mode="normal" in2="BackgroundImageFix" result="effect1_dropShadow_188_1427"/>
<feBlend mode="normal" in="SourceGraphic" in2="effect1_dropShadow_188_1427" result="shape"/>
</filter>
<filter id="filter8_d_188_1427" x="132.832" y="120.048" width="29.3765" height="20.2274" filterUnits="userSpaceOnUse" color-interpolation-filters="sRGB">
<feFlood flood-opacity="0" result="BackgroundImageFix"/>
<feColorMatrix in="SourceAlpha" type="matrix" values="0 0 0 0 0 0 0 0 0 0 0 0 0 0 0 0 0 0 127 0" result="hardAlpha"/>
<feOffset dy="1.18985"/>
<feGaussianBlur stdDeviation="4.16447"/>
<feComposite in2="hardAlpha" operator="out"/>
<feColorMatrix type="matrix" values="0 0 0 0 0.442222 0 0 0 0 0.61613 0 0 0 0 0.829167 0 0 0 1 0"/>
<feBlend mode="normal" in2="BackgroundImageFix" result="effect1_dropShadow_188_1427"/>
<feBlend mode="normal" in="SourceGraphic" in2="effect1_dropShadow_188_1427" result="shape"/>
</filter>
<filter id="filter9_d_188_1427" x="123.683" y="141.193" width="29.3765" height="20.2274" filterUnits="userSpaceOnUse" color-interpolation-filters="sRGB">
<feFlood flood-opacity="0" result="BackgroundImageFix"/>
<feColorMatrix in="SourceAlpha" type="matrix" values="0 0 0 0 0 0 0 0 0 0 0 0 0 0 0 0 0 0 127 0" result="hardAlpha"/>
<feOffset dy="1.18985"/>
<feGaussianBlur stdDeviation="4.16447"/>
<feComposite in2="hardAlpha" operator="out"/>
<feColorMatrix type="matrix" values="0 0 0 0 0.442222 0 0 0 0 0.61613 0 0 0 0 0.829167 0 0 0 1 0"/>
<feBlend mode="normal" in2="BackgroundImageFix" result="effect1_dropShadow_188_1427"/>
<feBlend mode="normal" in="SourceGraphic" in2="effect1_dropShadow_188_1427" result="shape"/>
</filter>
<linearGradient id="paint0_linear_188_1427" x1="97.1145" y1="2e-06" x2="164.223" y2="192.573" gradientUnits="userSpaceOnUse">
<stop stop-color="#8DBEDC"/>
<stop offset="1" stop-color="#557CAF"/>
</linearGradient>
<linearGradient id="paint1_linear_188_1427" x1="55.4121" y1="107.867" x2="155.641" y2="160.226" gradientUnits="userSpaceOnUse">
<stop stop-color="#ADD1E7"/>
<stop offset="1" stop-color="#A4C6E6"/>
</linearGradient>
</defs>
</svg>
